<?xml version="1.0" standalone="no"?>
<!DOCTYPE svg PUBLIC "-//W3C//DTD SVG 20010904//EN"
 "http://www.w3.org/TR/2001/REC-SVG-20010904/DTD/svg10.dtd">
<svg version="1.0" xmlns="http://www.w3.org/2000/svg"
 width="325.000000pt" height="325.000000pt" viewBox="0 0 325.000000 325.000000"
 preserveAspectRatio="xMidYMid meet">
<metadata>
Created by potrace 1.11, written by Peter Selinger 2001-2013
</metadata>
<g transform="translate(0.000000,325.000000) scale(0.100000,-0.100000)"
fill="#000000" stroke="none">
<path d="M1885 3233 c-10 -9 -15 -26 -12 -40 4 -23 3 -23 -77 -23 -84 0 -106
-9 -106 -42 0 -29 34 -38 142 -38 l103 0 58 -90 c31 -49 60 -96 63 -105 5 -13
-16 -15 -180 -15 -176 0 -189 1 -216 22 -42 31 -88 27 -122 -11 -28 -31 -30
-61 -7 -103 23 -42 96 -50 130 -13 l24 25 213 0 213 0 26 -57 c31 -70 41 -148
29 -224 l-8 -56 -327 1 c-326 1 -326 1 -356 24 -75 59 -173 -29 -119 -106 27
-39 61 -45 108 -22 39 19 62 20 337 21 162 0 310 0 329 0 28 -1 37 -6 47 -28
25 -55 165 -196 262 -263 28 -19 27 -31 -10 -66 -65 -61 -109 -125 -109 -159
0 -31 37 -98 66 -120 18 -13 10 -24 -59 -72 l-58 -41 56 -26 c30 -15 55 -28
55 -30 0 -2 -14 -21 -31 -42 -27 -33 -30 -45 -25 -79 l5 -41 -404 0 c-223 -1
-405 3 -405 7 0 17 -52 42 -83 41 -37 -1 -88 -49 -82 -79 2 -10 4 -24 4 -31 1
-7 12 -24 26 -37 31 -32 82 -33 114 -4 23 22 28 22 428 23 223 1 410 -2 415
-5 20 -13 -1 -56 -35 -73 -73 -34 -146 -46 -246 -40 -247 16 -288 9 -334 -61
l-22 -35 -145 0 c-80 0 -150 -4 -156 -8 -18 -12 -25 -44 -13 -58 9 -11 43 -14
140 -14 l128 0 -35 -70 c-19 -39 -43 -93 -54 -121 -32 -81 -58 -127 -138 -247
l-75 -112 -132 0 c-119 0 -134 2 -150 20 -41 45 -135 7 -135 -55 0 -80 89
-115 150 -60 11 10 44 14 108 14 50 0 92 -2 92 -5 0 -3 -14 -26 -31 -51 -43
-61 -57 -115 -53 -195 5 -101 20 -147 50 -154 17 -4 31 -1 45 12 17 15 19 26
14 69 -19 148 -18 151 98 313 159 223 199 290 260 437 55 132 142 282 167 287
8 2 33 3 55 2 22 -1 92 -4 155 -7 272 -14 417 73 403 241 -2 24 -9 58 -17 76
-13 31 -12 34 25 80 43 54 49 84 19 111 -19 17 -19 18 9 52 38 46 33 75 -26
135 l-47 47 20 23 c10 12 36 40 57 63 66 69 84 124 58 174 -6 11 -39 41 -74
67 -69 52 -174 155 -201 197 -16 23 -17 38 -11 100 22 203 -13 302 -214 612
-97 150 -128 176 -166 138z m-247 -397 c-4 -28 -34 -44 -55 -30 -21 13 -19 44
4 61 21 16 55 -5 51 -31z m-163 -1447 c9 -26 -13 -51 -39 -47 -27 4 -34 47
-11 64 21 16 42 8 50 -17z"/>
<path d="M1394 3222 c-64 -10 -89 -106 -39 -149 80 -70 191 36 125 119 -20 26
-48 36 -86 30z m54 -76 c5 -22 -15 -46 -38 -46 -26 0 -42 44 -23 63 19 19 56
8 61 -17z"/>
<path d="M1522 3158 c-16 -16 -15 -43 2 -57 22 -19 126 -10 140 12 8 12 8 22
0 35 -14 21 -122 30 -142 10z"/>
<path d="M735 1160 c-53 -21 -74 -80 -44 -129 29 -49 99 -54 137 -11 13 16 29
20 84 20 72 0 103 16 91 48 -10 27 -24 32 -91 32 -46 0 -70 5 -90 19 -35 25
-62 32 -87 21z m60 -71 c14 -42 -44 -68 -65 -29 -8 15 -6 24 10 40 22 22 46
18 55 -11z"/>
<path d="M1032 1108 c-15 -15 -15 -41 0 -56 12 -12 104 -17 132 -6 9 4 16 18
16 34 0 16 -7 30 -16 34 -28 11 -120 6 -132 -6z"/>
<path d="M1212 1108 c-15 -15 -15 -41 0 -56 7 -7 38 -12 69 -12 70 0 94 17 77
55 -10 23 -17 25 -73 25 -34 0 -66 -5 -73 -12z"/>
</g>
</svg>
