<svg xmlns="http://www.w3.org/2000/svg" viewBox="0 0 1369.36 943.38"><defs><style>.cls-1{fill:#00769d;}.cls-2{fill:#47c0c6;}.cls-3{fill:#58e9f9;}.cls-4{fill:#00869d;}.cls-5{fill:#00a99d;}.cls-6{fill:none;stroke:#fff;stroke-miterlimit:10;}</style></defs><g id="Layer_2" data-name="Layer 2"><g id="Layer_1-2" data-name="Layer 1"><path class="cls-1" d="M100,86.17h0a11.5,11.5,0,0,1,11.5,11.5v70.5a0,0,0,0,1,0,0h-23a0,0,0,0,1,0,0V97.67A11.5,11.5,0,0,1,100,86.17Z" transform="translate(153.04 -25.62) rotate(57.33)"/><path class="cls-1" d="M114.56,180.12a14.17,14.17,0,0,0-14.17,14.16V206.7l-6.32-.93V276.1H122.4V189.27a14.13,14.13,0,0,0-2.57-8.13,14.21,14.21,0,0,0-5.27-1Z"/><ellipse class="cls-2" cx="59.97" cy="152.4" rx="12" ry="9" transform="translate(-77.22 62.95) rotate(-35.41)"/><ellipse class="cls-3" cx="59.3" cy="160.4" rx="12" ry="9" transform="translate(-91.86 80.43) rotate(-41.83)"/><polygon class="cls-4" points="100.39 206.71 100.39 281.12 128.72 281.12 128.72 210.91 100.39 206.71"/><path class="cls-5" d="M106.29,177a14.16,14.16,0,0,0-14.92,13.36l-.91,16.47,6.26,1.29.68-12.4a14.16,14.16,0,0,1,14.93-13.36h0a13.89,13.89,0,0,1,5.2,1.31A14.14,14.14,0,0,0,106.29,177Z"/><path class="cls-5" d="M125.69,197.29a14.16,14.16,0,0,0-13.36-14.92h0A14.16,14.16,0,0,0,97.4,195.73l-.68,12.4,28.05,5.76Z"/><path class="cls-5" d="M162.91,221.73,137.47,89A17.16,17.16,0,0,1,129,86.22a16.25,16.25,0,0,1-2.91-2.43L48.7,198.26l41.76,8.58.91-16.47a14.15,14.15,0,0,1,26.16-6.69,14.15,14.15,0,0,1,8.16,13.61l-.92,16.6Z"/><path class="cls-3" d="M137.47,89c9.39.58,20.27-5.56,27.35-16.4,9.38-14.35,8.56-31.5-1.85-38.3s-26.43-.68-35.81,13.68c-8.41,12.86-8.61,28-1.06,35.86l8.09-12Z"/><path class="cls-3" d="M137.47,89l-3.28-17.13-8.09,12A16.25,16.25,0,0,0,129,86.22,17.16,17.16,0,0,0,137.47,89Z"/><path class="cls-4" d="M97.51,89.47h0A11.5,11.5,0,0,1,109,101v70.5a0,0,0,0,1,0,0H86a0,0,0,0,1,0,0V101A11.5,11.5,0,0,1,97.51,89.47Z" transform="translate(139.53 -26.9) rotate(51.73)"/><path class="cls-6" d="M.18,250.62c28.08-5.52,132.12,53.1,144.33,15.43,29.32-90.43,91.58,60.61,62.36,119.29-30,60.28,98.71,127.07,153.3,112.59,31.49-8.35,433.66-105.91,48.9-111.31-142.35-2-85.59-134.59-61.58-149,33.31-20-19.19,1-12.12-12,2.67-4.91,23-6.54,35.19-5.14C398,223.62,468.5,268.15,510,268.62c58.69.66,47.65-77.62,108.66-74.94,8.09.35,3.61,1.35,74,24.12,57.64,18.64,68.26,20.43,80.55,16.09,28.66-10.14,41.29-44.84,49.37-67,22.62-62.15-1.14-93.53,24.68-128.67,13.57-18.47,39.59-36.29,65-33.51,56.22,6.16,91.84,111.65,97.44,186.31,2.07,27.62-17,48.51-15.1,62.62,9.1,67.47,64.62,115,127.21,120,5.05.4,40.8-5.88,51.58-23.12,7.4-11.84-.78-23.07,6.49-49.6,3.4-12.39,6.1-22.21,14.3-29.48,15.7-13.93,32.21-1.32,54.56-12.07,14.11-6.78,29-22.15,32.48-40.21,5.07-26.68-129.51-32.31-136.19-77.52-2.17-14.75,71.08-90.13,92.89-80,96.92,45,101-148,79.67-11.36-3.53,22.71,40.26-.84,51.57,2.73"/><path class="cls-6" d="M.18,259.53C29,253.59,131.86,311.15,144.11,274.1c22.76-68.8,64.25,5.32,69.75,69.28,1.6,18.67-.21,36.49-6.49,49.66-25.62,53.69,75.45,112.57,135.3,112.9a65.37,65.37,0,0,0,18.19-2.16c10.24-2.94,58.5-15.19,106.25-30.85,31.14-10.21,61.87-21.74,82.25-32.61,35.36-18.84,38.61-36-45.56-43.91-23.36-2.19-53.63-3.83-92-4.66-79.36-1.42-95.22-44.65-89.6-84.44,4.15-30,20.48-58,30.83-64.29,32.85-20-18.69.66-11.66-12.27,2.71-5,22.75-6.67,34.87-5.46,15.6,1.57,45.2,16.33,75.57,29,22.47,9.38,45.45,17.44,63.36,17.53,58.3.52,48.07-76.59,108.69-73.57,8,.4,3.67,1.43,73.09,23.91,56.81,18.4,67.33,20.23,79.48,16,28.28-9.92,40.76-44,48.76-65.78,22.35-61.08-1-91.85,24.48-126.33,13.38-18.11,39-35.59,64-32.78,43.9,5,75,71.38,88.75,135.4a360.35,360.35,0,0,1,7.1,48.69c2,27.25-16.81,47.87-15,61.8,8.83,66.55,63.34,113.41,124.76,118.44,4.92.43,40.07-5.73,50.63-22.68,7.24-11.63-.85-22.66,6.27-48.75,3.32-12.19,5.94-21.84,14-29,15.42-13.69,31.63-1.24,53.58-11.79,13.85-6.64,28.79-21.7,31.85-39.49,2.09-12.11-27.65-19.32-59.27-27.9-21.32-5.71-43.52-12-57.93-21.57-9.3-6.15-15.8-13.46-16.49-22.53-.44-5.81,11.71-21.69,27.22-38.08,22.87-24.25,53.78-49.27,66.88-43.92,20.84,8.5,37.19,7.24,50.46.33,10.45-5.44,18.93-14.33,25.16-23.37,22.27-32.31,18-71.07,5.59,13.24-1.21,8.41,3.88,10.68,11.38,10.39,12.91-.54,33-8.49,40.55-6"/><path class="cls-6" d="M.18,268.44c29.45-6.36,131.25,50.13,143.52,13.7,22.84-67.66,63.44,6.08,69.93,69.52,1.88,18.44.18,36-5.76,49.08C183.63,453.88,284.18,512.09,343.51,512a63,63,0,0,0,18-2.32c10.31-3.18,57.91-15.66,104.86-31.76,30.77-10.55,60.86-22.38,81.11-33.21,35.09-18.75,38.74-35.09-43.52-42.81-22.62-2.1-52.06-4-89.44-5-77.7-2-92.77-44.72-86.87-84.44,4.42-29.8,20.57-57.66,30.92-64,32.38-20-18.2.32-11.21-12.55,2.75-5.06,22.54-6.81,34.55-5.78,15.52,1.34,44.91,15.51,75.23,28,22.2,9.12,45.11,16.77,63.17,17,57.89.61,48.49-75.56,108.7-72.19,8,.44,3.75,1.5,72.14,23.69,56,18.17,66.4,20.07,78.41,15.95,27.92-9.6,40.23-43.18,48.15-64.54,22.07-60-.84-90.18,24.28-124,13.2-17.75,38.46-34.88,63.08-32C958.36,27,989,92.52,1002.45,155.7a354.94,354.94,0,0,1,6.93,48.06c1.94,26.89-16.62,47.23-14.88,61,8.58,65.61,62.09,111.58,122.32,116.88,4.8.42,39.35-5.58,49.68-22.24,7.09-11.43-.92-22.26,6-47.92,3.24-12,5.79-21.46,13.68-28.47,15.13-13.44,31-1.16,52.6-11.5,13.59-6.52,28.54-21.26,31.22-38.79,1.76-11.54-28.54-18.11-59.83-25.49-21.08-5-42.65-10.23-56.17-19.16-8.87-5.86-15.2-12.94-15.21-21.82,0-5.67,12.78-21.44,28.33-38,23.06-24.79,53.71-50.66,67-46,20.94,7.38,37.21,6.12,50.87-1.13,10.54-5.6,19.47-14.67,25.86-23.47,22.76-31.32,17.47-68.26,6,16.35-1.15,8.48,4,11,11.45,10.85,12.88-.17,32.87-7.51,40.84-4.71"/><path class="cls-6" d="M.18,277.36C30.32,270.57,131,326,143.3,290.18c22.92-66.52,62.63,6.84,70.1,69.76,2.16,18.2.57,35.59-5,48.5C185.52,461,285.54,518.56,344.35,518a60,60,0,0,0,17.89-2.48c10.38-3.42,57.33-16.15,103.47-32.68,30.4-10.89,59.85-23,80-33.81,34.82-18.65,38.87-34.19-41.49-41.7-21.87-2-50.47-4.1-86.88-5.26-76.05-2.43-90.39-44.79-84.16-84.44,4.66-29.61,20.67-57.31,31-63.76,31.92-19.9-17.71,0-10.75-12.81,2.79-5.15,22.33-7,34.23-6.11,15.43,1.12,44.61,14.68,74.88,26.91,21.94,8.87,44.77,16.22,63,16.4,57.49.58,48.91-74.53,108.73-70.81,7.9.47,3.81,1.58,71.17,23.46,55.16,17.94,65.48,19.9,77.34,15.89,27.56-9.32,39.75-42.34,47.55-63.3,21.91-58.9-.68-88.51,24.08-121.66,13-17.4,37.9-34.18,62.14-31.3,42.6,5.19,72.75,69.86,85.93,132.21a349.23,349.23,0,0,1,6.76,47.44c1.87,26.51-16.48,46.59-14.78,60.17,8.13,64.69,60.83,109.86,119.88,115.32,4.67.43,38.62-5.44,48.74-21.81,6.92-11.22-1-21.85,5.8-47.07,3.16-11.77,5.64-21.09,13.38-28,14.83-13.2,30.45-1.08,51.61-11.22,13.33-6.38,28.32-20.81,30.59-38.07,1.44-11-29.44-16.87-60.38-23.09-20.85-4.19-41.79-8.42-54.41-16.75-8.44-5.58-14.6-12.46-13.92-21.11.43-5.57,13.89-21.15,29.42-38,23.33-25.27,53.62-52.06,67.11-48,21,6.27,37.23,5,51.27-2.59,10.65-5.76,20-15,26.57-23.56,23.23-30.33,17.09-65.45,6.44,19.46-1.07,8.55,4.06,11.2,11.54,11.3,12.83.18,32.74-6.53,41.12-3.45"/><path class="cls-6" d="M.18,286.27c30.83-7.21,130.37,47.16,142.71,12,23-65.37,61.82,7.58,70.27,70,2.44,18,1,35.14-4.3,47.92-21.46,52,78,108.9,136.33,107.83,6.49-.14,12.53-.81,17.74-2.64,10.45-3.67,56.75-16.63,102.09-33.59,30-11.24,58.83-23.65,78.82-34.41,34.55-18.56,39-33.3-39.46-40.6-21.12-1.92-48.88-4.2-84.32-5.57-74.4-2.86-88-44.86-81.44-84.44,4.89-29.41,20.76-57,31.1-63.49,31.46-19.86-17.21-.34-10.29-13.08,2.84-5.22,22.13-7.1,33.91-6.42,15.36.88,44.31,13.85,74.53,25.86,21.68,8.61,44.44,15.66,62.79,15.83C587.75,282,580,207.91,639.41,212c7.83.51,3.87,1.65,70.21,23.24C764,252.94,774.17,255,785.89,251.05c27.19-9.05,39.23-41.51,46.94-62.06,21.68-57.81-.53-86.83,23.87-119.32,12.84-17,37.35-33.53,61.21-30.57,42,5.2,71.61,69.11,84.52,130.61a346,346,0,0,1,6.59,46.82c1.8,26.15-16.31,46-14.67,59.36,7.8,63.76,59.56,108.13,117.43,113.76,4.54.44,37.89-5.3,47.79-21.37,6.77-11-1.08-21.45,5.57-46.23,3.08-11.57,5.5-20.72,13.07-27.47,14.55-12.95,29.86-1,50.64-10.94,13.07-6.25,28.13-20.37,30-37.36,1.13-10.45-30.34-15.62-60.93-20.68-20.62-3.41-40.92-6.6-52.66-14.34-8-5.29-14-12-12.63-20.4.88-5.5,15-20.89,30.53-37.94,23.54-25.79,53.47-53.45,67.22-50.06,21,5.18,37.25,3.89,51.68-4,10.75-5.91,20.55-15.34,27.27-23.66,23.69-29.33,16.71-62.63,6.87,22.58-1,8.62,4.14,11.46,11.62,11.76,12.79.51,32.62-5.56,41.4-2.21"/><path class="cls-6" d="M.18,295.18c31.51-7.62,129.93,45.68,142.31,11.09,23.08-64.24,61,8.3,70.44,70.23,2.71,17.72,1.36,34.69-3.57,47.34C189.28,475.34,288.27,531.52,346,530c6.44-.19,12.44-.89,17.59-2.8,10.53-3.93,56.17-17.13,100.7-34.51,29.67-11.58,57.82-24.28,77.68-35,34.28-18.46,39.14-32.4-37.43-39.49-20.37-1.83-47.29-4.31-81.77-5.87-72.74-3.3-85.64-44.94-78.72-84.44,5.12-29.22,20.86-56.61,31.2-63.22,31-19.82-16.72-.69-9.83-13.36,2.87-5.3,21.92-7.24,33.59-6.74,15.27.65,44,13,74.18,24.81,21.41,8.37,44.09,15.44,62.6,15.27,56.68-.53,49.74-72.36,108.76-68.05,7.77.56,3.94,1.72,69.26,23,53.5,17.48,63.62,19.56,75.2,15.76,26.81-8.78,38.71-40.67,46.33-60.81,21.44-56.73-.38-85.17,23.67-117C871.7,60.85,895.83,44.7,919.31,47.7c41.31,5.28,70.47,68.35,83.12,129a341.85,341.85,0,0,1,6.41,46.19c1.73,25.78-16.14,45.31-14.57,58.54,7.48,62.84,58.31,106.42,115,112.2,4.42.46,37.16-5.15,46.84-20.92,6.62-10.81-1.15-21.05,5.34-45.4,3-11.36,5.35-20.34,12.77-27,14.26-12.71,29.27-.91,49.65-10.66,12.81-6.11,28-19.94,29.33-36.65.81-9.92-31.26-14.37-61.49-18.27-20.4-2.64-40.06-4.79-50.9-11.93-7.58-5-13.32-11.59-11.35-19.68,1.34-5.49,16-20.64,31.63-37.9,23.76-26.31,53.3-54.86,67.35-52.11,21,4.1,37.26,2.78,52.08-5.51,10.84-6.07,21.07-15.66,28-23.75,24.14-28.33,16.33-59.81,7.3,25.68-.92,8.7,4.23,11.72,11.69,12.22,12.75.86,32.5-4.58,41.69-1"/><path class="cls-6" d="M.18,304.1c32.2-8.05,129.49,44.19,141.91,10.21,23.16-63.09,60.16,9,70.61,70.47,3,17.48,1.75,34.25-2.84,46.76-18.71,51,79.78,106.58,137,104.45,6.38-.23,12.35-1,17.43-3,10.6-4.18,55.6-17.63,99.31-35.42,29.32-11.93,56.81-24.92,76.54-35.61,34-18.37,39.27-31.51-35.4-38.39-19.62-1.74-45.7-4.41-79.21-6.17-71.08-3.75-83.27-45-76-84.45,5.34-29,20.95-56.25,31.29-62.95,30.55-19.77-16.23-1-9.38-13.62,2.92-5.38,21.72-7.39,33.28-7.07,15.19.42,43.69,12.2,73.83,23.77,21.15,8.11,43.75,14.95,62.4,14.7,56.28-.75,50.16-71.3,108.79-66.68,7.71.61,4,1.8,68.29,22.8,52.68,17.25,62.7,19.38,74.14,15.69,26.44-8.51,38.2-39.84,45.72-59.57,21.21-55.65-.23-83.49,23.47-114.66,12.47-16.33,36.23-32.14,59.33-29.1,40.67,5.36,69.33,67.6,81.71,127.43a334.78,334.78,0,0,1,6.23,45.56c1.67,25.42-16,44.68-14.46,57.73,7.16,61.91,57,104.69,112.55,110.64,4.29.46,36.43-5,45.89-20.49,6.46-10.6-1.22-20.64,5.11-44.55,2.92-11.16,5.2-20,12.47-26.46,14-12.46,28.68-.83,48.67-10.38,12.55-6,27.82-19.52,28.69-35.93.5-9.42-32.17-13.13-62-15.87-20.16-1.86-39.18-3-49.14-9.52-7.14-4.71-11-10.85-10.05-19,2.86-5,17.13-20.38,32.73-37.85,24-26.84,53.08-56.26,67.46-54.16,20.9,3.06,37.28,1.67,52.49-7,10.94-6.22,21.6-16,28.67-23.85,24.57-27.32,16-57,7.72,28.8-.84,8.77,4.32,12,11.78,12.67,12.71,1.2,32.37-3.6,42,.3"/><path class="cls-6" d="M.18,313c32.89-8.47,129.06,42.71,141.5,9.34,23.25-62,59.34,9.73,70.79,70.71,3.24,17.24,2.14,33.8-2.12,46.18C193,489.69,291,544.61,347.72,542c6.32-.29,12.26-1,17.28-3.13,10.69-4.43,55-18.14,97.93-36.33,29-12.28,55.79-25.56,75.39-36.21,33.74-18.27,39.42-30.78-33.37-37.28-18.87-1.69-44.11-4.51-76.66-6.48-69.41-4.19-80.89-45.08-73.28-84.44,5.57-28.82,21-55.9,31.39-62.69,30.09-19.71-15.74-1.35-8.92-13.89,3-5.46,21.53-7,32.95-7.39,15.11-.59,43.39,11.38,73.49,22.72,20.87,7.87,43.41,14.47,62.21,14.14,55.87-1,50.57-70.25,108.81-65.3,7.64.65,4.07,1.87,67.33,22.58,51.85,17,61.77,19.2,73.07,15.63,26.06-8.25,37.68-39,45.11-58.34,21-54.56-.08-81.82,23.27-112.32,12.29-16,35.66-31.45,58.4-28.36,40,5.43,68.18,66.83,80.29,125.82a329.64,329.64,0,0,1,6.06,45c1.61,25-15.8,44-14.35,56.91,6.84,61,55.79,103,110.09,109.08,4.18.47,35.71-4.87,45-20.05,6.31-10.4-1.29-20.24,4.88-43.72,2.85-10.94,5-19.58,12.16-25.94,13.69-12.23,28.1-.76,47.69-10.11,12.29-5.84,27.73-19.11,28.06-35.22.19-8.94-33.08-11.87-62.6-13.47-19.94-1.07-38.32-1.16-47.38-7.1-6.71-4.42-10.13-10.32-8.77-18.26,3.49-4.86,18.21-20.12,33.83-37.8,24.19-27.37,54-62,67.58-56.21,19.22,8.19,37.3.55,52.89-8.43,11-6.37,22.12-16.3,29.38-23.94,25-26.31,15.6-54.17,8.15,31.9-.76,8.85,4.41,12.23,11.86,13.13,12.66,1.55,32.25-2.62,42.26,1.55"/><path class="cls-6" d="M.18,321.92c33.57-8.89,128.62,41.23,141.1,8.47,23.33-60.8,58.49,10.43,71,70.94,3.5,17,2.53,33.37-1.39,45.61-16,49.93,81.52,104.17,137.71,101.07,6.27-.34,12.17-1.12,17.12-3.29,10.78-4.7,54.48-18.66,96.55-37.24,28.62-12.65,54.77-26.2,74.25-36.81C570,452.49,576,440.75,505.15,434.49c-18.12-1.61-42.52-4.62-74.11-6.78-67.75-4.64-78.52-45.15-70.56-84.45,5.79-28.61,21.13-55.55,31.48-62.41,29.63-19.65-15.24-1.69-8.47-14.17,3-5.53,21.34-7,32.64-7.71,15-.92,43.08,10.55,73.13,21.68,20.61,7.62,43.07,14,62,13.57,55.47-1.18,51-69.2,108.83-63.92,7.58.69,4.14,1.94,66.38,22.35,51,16.79,60.84,19,72,15.57,25.7-8,37.17-38.19,44.51-57.1,20.74-53.47.07-80.15,23.06-110,12.11-15.61,35.11-30.75,57.47-27.62,39.37,5.51,67,66.08,78.88,124.23a324,324,0,0,1,5.89,44.32c1.54,24.68-15.63,43.39-14.25,56.09,6.52,60.05,54.54,101.24,107.65,107.53,4,.48,35-4.73,44-19.61,6.15-10.2-1.37-19.84,4.65-42.88,2.76-10.74,4.89-19.21,11.85-25.44,13.4-12,27.5-.68,46.71-9.82,12-5.72,24.78-18.95,27.43-34.51-1.67-8.32-34-10.63-63.16-11.07-19.73-.29-37.45.66-45.63-4.7-6.27-4.12-9.22-9.78-7.48-17.54,4.12-4.7,19.29-19.86,34.94-37.76,24.4-27.89,53.68-64,67.69-58.25,19.12,7.89,37.32-.55,53.3-9.89,11.15-6.52,22.63-16.61,30.08-24,25.36-25.29,15.23-51.34,8.58,35-.69,8.92,4.49,12.48,11.93,13.59,12.62,1.88,32.13-1.64,42.55,2.79"/><path class="cls-6" d="M.18,330.84c34.26-9.32,128.18,39.74,140.69,7.59,23.41-59.66,57.65,11.12,71.14,71.18,3.76,16.75,2.91,32.93-.66,45-14.59,49.42,82.38,103,138,99.39,6.22-.4,12.08-1.22,17-3.46,10.86-5,53.91-19.18,95.17-38.16,28.27-13,53.75-26.83,73.1-37.41,33.2-18.09,39.68-29.05-29.3-35.07-17.37-1.52-40.93-4.72-71.56-7.08-66.08-5.1-76.15-45.22-67.84-84.45,6-28.42,21.23-55.2,31.58-62.15,29.18-19.59-14.75-2-8-14.44,3-5.61,21.16-7.09,32.31-8,14.93-1.26,42.77,9.73,72.79,20.63,20.34,7.39,42.73,13.5,61.83,13,55.06-1.39,51.41-68.15,108.85-62.54,7.52.73,4.21,2,65.41,22.13,50.19,16.56,59.92,18.85,70.93,15.5,25.32-7.71,36.65-37.35,43.9-55.86,20.5-52.38.22-78.47,22.86-107.65,11.93-15.25,34.55-30.06,56.53-26.89,38.72,5.59,65.91,65.32,77.47,122.64a318.62,318.62,0,0,1,5.72,43.69c1.47,24.31-15.46,42.75-14.14,55.28,6.19,59.12,53.28,99.5,105.2,106,3.93.49,34.26-4.58,43.06-19.17,6-10-1.4-19.41,4.42-42,2.7-10.52,4.74-18.83,11.55-24.93,13.11-11.74,26.91-.59,45.72-9.54,11.77-5.58,24.25-18.54,26.8-33.8-2.17-7.77-34.92-9.37-63.71-8.66-19.51.49-36.59,2.47-43.87-2.29-5.84-3.84-8.33-9.25-6.19-16.83,4.73-4.53,20.36-19.61,36-37.71,24.61-28.42,52.49-57.54,67.8-60.3,20.12,3.91,37.35-1.66,53.71-11.35,11.25-6.67,23.14-16.93,30.78-24.13,25.73-24.27,14.87-48.51,9,38.12-.61,9,4.59,12.73,12,14,12.58,2.23,32-.66,42.83,4.05"/><path class="cls-6" d="M.18,339.75c35-9.74,127.74,38.25,140.29,6.73C164,288,197.26,358.27,211.78,417.89c4,16.5,3.3,32.49.07,44.45C198.63,511.26,295.1,564.1,350.24,560c6.17-.46,12-1.31,16.82-3.62,10.95-5.23,53.35-19.72,93.78-39.07,27.94-13.38,52.74-27.47,72-38,32.93-18,39.82-28.19-27.27-34-16.62-1.44-39.33-4.83-69-7.39-64.41-5.55-73.79-45.29-65.12-84.45,6.24-28.22,21.32-54.84,31.67-61.87,28.73-19.52-14.26-2.37-7.56-14.71,3.09-5.69,21-7.18,32-8.36C442.35,267,470,277.49,500,288.18c20.06,7.14,42.39,13,61.64,12.45,54.65-1.6,51.82-67.11,108.87-61.18,7.45.78,4.27,2.1,64.45,21.91,49.36,16.33,59,18.68,69.86,15.44,25-7.44,36.14-36.52,43.29-54.62,20.27-51.3.31-76.84,22.66-105.31,11.71-14.92,34-29.38,55.59-26.16,38.08,5.68,64.77,64.57,76.07,121a315,315,0,0,1,5.54,43.08c1.4,23.94-15.29,42.11-14,54.46,5.87,58.18,52,97.75,102.76,104.4,3.8.5,33.53-4.44,42.11-18.73,5.84-9.78-1.46-19,4.19-41.2,2.62-10.32,4.6-18.46,11.25-24.43,12.82-11.49,26.32-.51,44.73-9.26,11.52-5.45,23.72-18.14,26.18-33.09-2.69-7.22-35.86-8.12-64.27-6.25-19.3,1.27-35.72,4.28-42.12.12-5.41-3.55-7.42-8.73-4.9-16.12,5.36-4.37,21.44-19.35,37.14-37.66,24.82-28.95,52.35-58.61,67.92-62.35,20,3.28,37.37-2.77,54.11-12.81,11.36-6.81,23.65-17.24,31.49-24.23,26.08-23.25,14.52-45.68,9.43,41.24-.53,9.06,4.67,13,12.09,14.5,12.54,2.57,31.89.32,43.12,5.3"/><path class="cls-6" d="M.18,348.66c35.63-10.16,127.31,36.77,139.89,5.86C163.64,297.14,196,367,211.55,426.17a91.46,91.46,0,0,1,.8,43.87c-11.85,48.44,84.11,100.55,138.74,96,6.11-.51,11.89-1.4,16.66-3.78,11-5.51,52.79-20.27,92.39-40,27.61-13.74,51.73-28.1,70.82-38.61,32.66-17.9,39.95-27.32-25.24-32.86-15.87-1.35-37.73-4.94-66.44-7.69-62.74-6-71.42-45.36-62.41-84.45,6.46-28,21.41-54.49,31.77-61.61,28.28-19.45-13.77-2.7-7.1-15,3.12-5.77,20.72-8.13,31.67-8.68,14.85-.75,42.14,8.08,72.1,18.54,19.78,6.91,42,12.53,61.44,11.89C621,302,619,237.76,675.64,244c7.39.82,4.34,2.17,63.5,21.69,48.53,16.1,58.05,18.5,68.79,15.37,24.57-7.16,35.62-35.69,42.68-53.38,20-50.21.45-75.18,22.46-103,11.53-14.56,33.43-28.68,54.65-25.42,37.43,5.76,63.63,63.81,74.66,119.45a314.21,314.21,0,0,1,5.36,42.45c1.29,23.58-15.11,41.47-13.93,53.65,5.56,57.25,50.78,96,100.32,102.84,3.68.51,32.8-4.3,41.16-18.3,5.69-9.57-1.53-18.6,4-40.36,2.55-10.1,4.45-18.08,10.94-23.92,12.54-11.25,25.74-.43,43.76-9,11.25-5.31,23.18-17.74,25.54-32.37-3.19-6.68-36.79-6.86-64.83-3.85-19.08,2.05-34.86,6.11-40.35,2.53-5-3.25-6.53-8.2-3.62-15.4,6-4.22,22.52-19.1,38.25-37.62,25-29.48,52.2-59.69,68-64.4,20,2.65,37.4-3.88,54.52-14.27,11.47-7,24.14-17.54,32.19-24.33,26.41-22.24,14.17-42.84,9.86,44.36-.46,9.13,4.75,13.23,12.17,15,12.49,2.91,31.76,1.3,43.4,6.55"/><path class="cls-6" d="M.18,357.58c36.32-10.58,126.87,35.28,139.48,5,23.66-56.24,55.05,13.13,71.66,71.89a91.08,91.08,0,0,1,1.52,43.29c-10.48,48,85,99.35,139.09,94.32,6.06-.56,11.8-1.49,16.51-3.94,11.12-5.79,52.24-20.83,91-40.9,27.27-14.13,50.71-28.74,69.67-39.21,32.39-17.81,40.09-26.47-23.21-31.76-15.12-1.27-36.13-5.05-63.89-8-61.06-6.49-69-45.43-59.68-84.46,6.68-27.82,21.5-54.13,31.86-61.34,27.83-19.37-13.28-3-6.65-15.25,3.17-5.84,20.53-8.28,31.36-9,14.78-1,41.81,7.25,71.75,17.5,19.5,6.67,41.7,12,61.25,11.32,53.84-2,52.65-65,108.91-58.42,7.33.86,4.4,2.24,62.54,21.47,47.7,15.86,57.12,18.32,67.71,15.3,24.2-6.89,35.11-34.85,42.08-52.14,19.8-49.12.59-73.51,22.25-100.64,11.35-14.21,32.88-28,53.72-24.68,36.79,5.83,62.49,63.05,73.25,117.85a308.78,308.78,0,0,1,5.19,41.82c1.22,23.21-14.94,40.83-13.82,52.83,5.23,56.32,49.53,94.27,97.87,101.29,3.55.51,32.07-4.16,40.22-17.86,5.52-9.37-1.6-18.2,3.72-39.52,2.47-9.9,4.3-17.71,10.64-23.42,12.25-11,25.14-.35,42.77-8.7,11-5.17,22.65-17.33,24.91-31.66-3.7-6.13-37.72-5.6-65.38-1.44-18.88,2.84-34,7.92-38.59,4.94s-5.63-7.67-2.33-14.69c6.61-4.05,23.59-18.85,39.34-37.58,25.25-30,52.06-60.75,68.15-66.44,19.92,2,37.42-5,54.93-15.73,11.57-7.11,24.63-17.85,32.89-24.42,26.71-21.24,13.83-40,10.28,47.46-.37,9.21,4.84,13.49,12.26,15.42,12.44,3.24,31.64,2.27,43.69,7.8"/><path class="cls-6" d="M.18,366.49c37-11,126.37,33.77,139.08,4.11,23.62-55.14,54.16,13.78,71.83,72.13a91.18,91.18,0,0,1,2.25,42.71c-9.11,47.49,85.86,98.14,139.43,92.63,6-.62,11.72-1.59,16.36-4.1,11.21-6.07,51.68-21.4,89.62-41.82,26.95-14.5,49.7-29.37,68.53-39.81,32.12-17.71,40.22-25.61-21.18-30.65-14.37-1.19-34.52-5.16-61.33-8.3-59.38-6.95-66.7-45.49-57-84.45,6.9-27.62,21.6-53.77,32-61.07,27.39-19.29-12.79-3.38-6.19-15.52,3.21-5.93,20.33-8.45,31-9.33,14.72-1.22,41.5,6.43,71.4,16.45,19.23,6.45,41.36,11.56,61.07,10.76,53.43-2.19,53.06-64,108.93-57,7.26.9,4.47,2.31,61.57,21.24,46.88,15.64,56.2,18.15,66.65,15.24,23.82-6.62,34.59-34,41.47-50.9,19.56-48,.74-71.84,22-98.3,11.16-13.86,32.32-27.3,52.78-24,36.14,5.91,61.46,62.27,71.84,116.25a300.29,300.29,0,0,1,5,41.21c1.14,22.84-14.77,40.18-13.72,52,4.92,55.39,48.29,92.51,95.43,99.72,3.43.53,31.34-4,39.27-17.41,5.37-9.17-1.67-17.8,3.49-38.69,2.4-9.69,4.15-17.32,10.34-22.91,12-10.76,24.55-.26,41.79-8.42,10.73-5,22.12-16.93,24.28-30.94-4.22-5.59-38.66-4.34-65.94,1-18.67,3.62-33.13,9.74-36.84,7.35-4.13-2.66-4.73-7.14-1-14,7.24-3.89,24.66-18.59,40.45-37.53,25.45-30.53,51.91-61.83,68.27-68.49,19.85,1.38,37.44-6.08,55.32-17.19,11.68-7.25,25.12-18.16,33.6-24.52,27-20.23,13.48-37.18,10.71,50.58-.29,9.28,4.92,13.73,12.33,15.87,12.4,3.58,31.52,3.25,44,9.05"/><path class="cls-6" d="M.18,375.4c37.69-11.42,125.93,32.29,138.67,3.24,23.7-54,53.27,14.43,72,72.37a91.13,91.13,0,0,1,3,42.13c-7.74,47,86.72,96.93,139.77,90.94,5.95-.67,11.62-1.68,16.21-4.26,11.3-6.36,51.13-22,88.23-42.73,26.64-14.9,48.69-30,67.39-40.41,31.85-17.62,40.36-24.76-19.14-29.56-13.63-1.09-32.92-5.26-58.79-8.59-57.68-7.44-64.33-45.56-54.24-84.45,7.11-27.43,21.69-53.42,32.05-60.81,26.94-19.2-12.29-3.71-5.74-15.79,3.25-6,20.14-8.6,30.72-9.65,14.65-1.46,41.17,5.6,71.05,15.41,18.95,6.21,41,11.08,60.87,10.19,53-2.38,53.49-62.92,108.95-55.66,7.2.94,4.54,2.38,60.62,21,46.05,15.41,55.26,18,65.58,15.17,23.45-6.36,34.07-33.18,40.86-49.65,19.33-46.95.88-70.18,21.85-96,11-13.5,31.76-26.6,51.84-23.21,35.5,6,60.33,61.51,70.43,114.66a294.7,294.7,0,0,1,4.85,40.58c1.07,22.47-14.6,39.54-13.62,51.2,4.6,54.45,47.05,90.75,93,98.16,3.31.54,30.65-3.85,38.33-17,5.23-8.94-1.73-17.39,3.26-37.84,2.32-9.48,4-16.95,10-22.4,11.68-10.52,24-.19,40.81-8.14,10.48-4.91,21.59-16.54,23.65-30.24-4.72-5-39.6-3.07-66.49,3.37-18.47,4.41-32.27,11.55-35.08,9.76-3.7-2.36-3.83-6.61.24-13.27,7.86-3.73,25.74-18.34,41.55-37.48,25.67-31.07,51.77-62.9,68.39-70.54,19.79.75,37.46-7.19,55.73-18.65,11.78-7.39,25.59-18.46,34.3-24.61,27.25-19.24,13.15-34.35,11.14,53.68-.22,9.36,5,14,12.41,16.33,12.35,3.91,31.4,4.23,44.26,10.3"/><path class="cls-6" d="M.18,384.32c38.38-11.85,125.49,30.8,138.27,2.37,23.77-52.87,52.35,15.06,72.17,72.6,5.25,15.23,5.25,30.32,3.72,41.55-6.37,46.58,87.59,95.72,140.11,89.25,5.9-.72,11.53-1.78,16.06-4.42C381.89,579,421.08,563.1,457.36,542c26.31-15.29,47.67-30.64,66.24-41,31.58-17.52,40.49-23.91-17.11-28.45-12.87-1-31.31-5.37-56.23-8.89-56-7.93-62-45.63-51.53-84.46,7.32-27.22,21.78-53.06,32.15-60.53,26.5-19.12-11.8-4.05-5.28-16.07,3.29-6.08,19.94-8.75,30.39-10,14.59-1.7,40.85,4.78,70.71,14.36,18.66,6,40.67,10.6,60.68,9.63,52.62-2.56,53.9-61.88,109-54.29,7.14,1,4.6,2.47,59.66,20.8,45.22,15.18,54.33,17.8,64.51,15.11,23.07-6.09,33.56-32.35,40.25-48.41,19.09-45.86,1-68.51,21.65-93.64,10.79-13.15,31.2-25.91,50.9-22.48,34.86,6.08,59.2,60.76,69,113.07a290.94,290.94,0,0,1,4.67,40c1,22.11-14.43,38.9-13.51,50.38,4.28,53.52,45.81,89,90.53,96.61,3.19.54,29.93-3.71,37.38-16.54,5.08-8.74-1.8-17,3-37,2.25-9.28,3.86-16.58,9.73-21.9,11.39-10.28,23.38-.11,39.83-7.86,10.21-4.78,21-16.13,23-29.52-5.23-4.5-40.54-1.8-67,5.76-18.26,5.22-31.4,13.38-33.32,12.18-3.27-2.06-2.93-6.08,1.54-12.56,8.48-3.57,26.81-18.08,42.65-37.43,25.87-31.6,51.62-64,68.5-72.58,19.72.11,37.49-8.3,56.14-20.12,11.89-7.54,26.06-18.77,35-24.71,27.49-18.26,12.81-31.51,11.56,56.8-.13,9.43,5.1,14.23,12.5,16.79,12.3,4.24,31.27,5.2,44.54,11.55"/><path class="cls-6" d="M.18,393.23c39.07-12.27,125,29.31,137.86,1.5,23.85-51.73,51.44,15.69,72.35,72.84,5.48,15,5.64,29.89,4.44,41-5,46.15,88.47,94.52,140.47,87.56,5.84-.78,11.43-1.88,15.9-4.58,11.47-6.94,50-23.17,85.46-44.56,26-15.69,46.66-31.28,65.1-41.61,31.31-17.43,40.63-23.07-15.08-27.35-12.12-.93-29.69-5.48-53.68-9.2-54.28-8.41-59.62-45.69-48.81-84.45,7.54-27,21.88-52.7,32.25-60.27,26.06-19-11.31-4.38-4.83-16.33,3.34-6.16,19.75-8.92,30.08-10.3,14.53-1.94,40.51,3.95,70.36,13.32,18.38,5.76,40.33,10.12,60.48,9.06,52.21-2.74,54.32-60.83,109-52.91,7.07,1,4.67,2.54,58.69,20.58,44.4,14.95,53.41,17.62,63.45,15.05,22.69-5.83,33-31.53,39.64-47.18,18.86-44.77,1.17-66.84,21.45-91.3,10.6-12.8,30.64-25.22,50-21.74,34.21,6.15,58.07,60,67.62,111.46a284,284,0,0,1,4.49,39.34c.94,21.73-14.25,38.26-13.4,49.56,4,52.59,44.58,87.21,88.09,95.05,3.07.55,29.2-3.57,36.44-16.1,4.92-8.54-1.88-16.59,2.8-36.17,2.16-9.07,3.7-16.2,9.42-21.39,11.1-10,22.78,0,38.84-7.58,10-4.64,20.52-15.73,22.39-28.81-5.74-3.95-41.49-.52-67.61,8.17-18.06,6-30.53,15.2-31.56,14.59-2.88-1.72-2-5.56,2.82-11.85,9.11-3.4,27.88-17.83,43.76-37.39,26.07-32.13,51.47-65,68.61-74.62,19.66-.53,37.52-9.4,56.55-21.58,12-7.68,26.52-19.08,35.7-24.8,27.71-17.29,12.48-28.68,12,59.91-.05,9.5,5.18,14.48,12.57,17.24,12.26,4.58,31.15,6.18,44.83,12.8"/><path class="cls-6" d="M.19,402.14c39.74-12.69,124.59,27.83,137.45.63,23.92-50.59,50.5,16.31,72.52,73.07,5.71,14.72,6,29.48,5.17,40.4-3.61,45.73,89.34,93.31,140.81,85.87,5.79-.83,11.34-2,15.75-4.75,11.56-7.23,49.47-23.78,84.07-45.47,25.69-16.1,45.65-31.91,64-42.21,31-17.34,40.76-22.23-13-26.24-11.37-.84-28.07-5.59-51.12-9.5-52.58-8.92-57.27-45.76-46.09-84.46,7.75-26.82,22-52.34,32.34-60,25.62-18.92-10.82-4.72-4.37-16.6,3.37-6.24,19.56-9.08,29.75-10.62,14.48-2.19,40.18,3.13,70,12.27,18.1,5.55,40,9.64,60.3,8.5,51.8-2.91,54.73-59.79,109-51.53,7,1.06,4.74,2.61,57.74,20.36,43.57,14.71,52.47,17.44,62.37,15,22.31-5.56,32.53-30.69,39-45.94,18.63-43.68,1.32-65.17,21.24-89,10.42-12.44,30.09-24.52,49-21,33.57,6.23,56.94,59.23,66.21,109.87a280.13,280.13,0,0,1,4.32,38.71c.86,21.37-14.08,37.62-13.29,48.75,3.64,51.65,43.35,85.43,85.64,93.48,2.94.56,28.47-3.41,35.49-15.66,4.77-8.32-1.94-16.17,2.57-35.32,2.08-8.86,3.55-15.83,9.11-20.89,10.81-9.79,22.2.06,37.87-7.3,9.69-4.51,20-15.33,21.75-28.1-6.25-3.4-42.43.77-68.16,10.58a115.06,115.06,0,0,0-29.81,17c-2.38-1.52-1.13-5,4.11-11.13,9.74-3.24,29-17.57,44.86-37.34,26.29-32.67,51.33-66.12,68.73-76.67,19.6-1.16,37.54-10.5,57-23,12.11-7.82,27-19.38,36.41-24.9,27.91-16.33,12.15-25.84,12.42,63,0,9.58,5.26,14.73,12.65,17.7,12.21,4.91,31,7.16,45.11,14.05"/><path class="cls-6" d="M.19,411.06c40.43-13.12,124.15,26.33,137.05-.25,24-49.46,49.55,16.94,72.69,73.31,5.94,14.46,6.43,29.06,5.9,39.82C213.6,569.26,306,616,357,608.13c5.74-.9,11.25-2.1,15.6-4.92,11.64-7.53,48.91-24.4,82.69-46.38,25.38-16.52,44.63-32.55,62.81-42.82,30.77-17.24,40.9-21.39-11-25.13-10.62-.76-26.45-5.71-48.56-9.8-50.86-9.43-54.92-45.83-43.38-84.46,8-26.62,22.07-52,32.44-59.73,25.19-18.83-10.33-5.06-3.92-16.88,3.42-6.31,19.37-9.24,29.44-10.94,14.42-2.44,39.84,2.3,69.66,11.23,17.81,5.33,39.65,9.16,60.11,7.93,51.39-3.08,55.14-58.74,109-50.15,7,1.1,4.8,2.68,56.78,20.13,42.74,14.49,51.54,17.27,61.3,14.92,21.93-5.29,32-29.86,38.43-44.7,18.39-42.58,1.46-63.51,21-86.63C899.67,167.71,919,156,937.52,159.53c32.93,6.31,55.81,58.48,64.8,108.28a273,273,0,0,1,4.15,38.08c.79,21-13.91,37-13.19,47.94,3.33,50.71,42.13,83.64,83.2,91.92,2.82.57,27.75-3.27,34.54-15.22,4.62-8.12-2-15.77,2.34-34.49,2-8.65,3.4-15.45,8.81-20.38,10.52-9.54,21.61.14,36.88-7,9.44-4.37,19.45-14.93,21.12-27.38-6.75-2.86-43.37,2.05-68.71,13-17.66,7.62-28.78,18.79-28,19.4-2-1.23-.23-4.49,5.4-10.41,10.36-3.09,30-17.33,46-37.3,26.49-33.2,51.18-67.19,68.84-78.72,19.53-1.79,37.57-11.6,57.36-24.5,12.21-8,27.44-19.69,37.11-25,28.09-15.39,11.83-23,12.84,66.13.11,9.65,5.35,15,12.73,18.15,12.17,5.24,30.91,8.14,45.41,15.31"/><path class="cls-6" d="M.19,420c41.11-13.53,123.71,24.85,136.64-1.11,24.07-48.33,48.6,17.54,72.87,73.54,6.16,14.21,6.83,28.64,6.63,39.24-.84,44.92,91.07,90.89,141.49,82.5,5.69-.95,11.15-2.21,15.45-5.08,11.73-7.83,48.36-25,81.3-47.3,25.07-16.93,43.62-33.18,61.67-43.41,30.5-17.15,41-20.57-9-24-9.87-.68-24.82-5.82-46-10.11-49.13-9.93-52.56-45.89-40.65-84.46,8.16-26.42,22.16-51.61,32.53-59.46,24.76-18.72-9.84-5.39-3.46-17.14,3.46-6.4,19.18-9.41,29.11-11.27,14.37-2.69,39.51,1.48,69.32,10.18,17.52,5.12,39.3,8.69,59.91,7.37,51-3.25,55.56-57.7,109.06-48.78,6.88,1.15,4.86,2.76,55.81,19.92,41.92,14.26,50.61,17.09,60.24,14.85,21.55-5,31.49-29,37.82-43.46,18.16-41.49,1.6-61.84,20.84-84.29,10.05-11.74,29-23.14,47.15-19.54,32.29,6.4,54.68,57.72,63.4,106.68a269.37,269.37,0,0,1,4,37.46c.72,20.64-13.74,36.34-13.09,47.12,3,49.78,40.92,81.85,80.76,90.37,2.7.58,27-3.13,33.59-14.79,4.46-7.91-2.07-15.36,2.11-33.64,1.93-8.45,3.25-15.08,8.51-19.88,10.23-9.3,21,.19,35.89-6.74,9.17-4.26,18.92-14.52,20.5-26.67-7.27-2.31-44.32,3.35-69.27,15.39-17.46,8.42-27.92,20.6-26.29,21.81-1.52-.94.66-4,6.68-9.7,11-2.93,31.1-17.08,47.06-37.25,26.7-33.74,51-68.26,69-80.77,19.47-2.43,37.6-12.69,57.77-26,12.31-8.1,27.88-20,37.81-25.09,28.25-14.45,11.51-20.17,13.27,69.24.19,9.73,5.44,15.23,12.81,18.62,12.12,5.57,30.79,9.11,45.69,16.55"/><path class="cls-6" d="M.19,428.89c41.8-14,123.27,23.36,136.24-2,24.14-47.19,47.63,18.16,73,73.78,6.37,13.95,7.22,28.22,7.36,38.66.56,44.53,91.94,89.68,141.83,80.81,5.64-1,11.06-2.32,15.3-5.24,11.81-8.14,47.8-25.69,79.91-48.21,24.77-17.37,42.61-33.82,60.54-44,30.22-17,41.16-19.75-7-22.92-9.13-.6-23.19-5.94-43.46-10.41-47.4-10.46-50.22-46-37.94-84.46,8.37-26.22,22.25-51.26,32.63-59.2,24.32-18.61-9.34-5.72-3-17.41,3.5-6.47,19-9.58,28.8-11.59,14.31-2.94,39.17.66,69,9.14,17.23,4.9,39,8.21,59.72,6.8,50.58-3.42,56-56.66,109.07-47.4,6.82,1.19,4.94,2.83,54.86,19.69,41.09,14,49.67,16.93,59.17,14.79,21.16-4.76,31-28.19,37.21-42.22,17.93-40.4,1.75-60.17,20.64-82,9.86-11.38,28.41-22.44,46.22-18.8,31.63,6.48,53.53,57,62,105.09a264,264,0,0,1,3.8,36.84c.65,20.26-13.57,35.69-13,46.3,2.7,48.84,39.71,80,78.31,88.81,2.58.58,26.29-3,32.64-14.35,4.31-7.71-2.14-15,1.88-32.81,1.86-8.23,3.11-14.7,8.21-19.37,9.94-9.05,20.41.27,34.91-6.45,8.91-4.13,18.38-14.13,19.86-26-7.78-1.77-45.26,4.64-69.83,17.79-17.25,9.23-27,22.41-24.53,24.22-1.08-.65,1.57-3.43,8-9,11.61-2.76,32.17-16.83,48.17-37.21,26.9-34.27,50.89-69.33,69.07-82.81,19.4-3.06,37.63-13.79,58.17-27.42,12.43-8.24,28.33-20.33,38.52-25.18,28.39-13.54,11.2-17.34,13.7,72.35.27,9.8,5.52,15.47,12.89,19.07,12.07,5.9,30.66,10.09,46,17.8"/><path class="cls-6" d="M.19,437.8C42.68,423.42,123,459.67,136,434.94c24.22-46.05,46.65,18.77,73.22,74,6.58,13.69,7.62,27.81,8.08,38.08,2,44.15,92.82,88.46,142.18,79.12,5.59-1.06,11-2.43,15.15-5.4,11.89-8.45,47.24-26.36,78.53-49.13,24.46-17.8,41.59-34.45,59.39-44.61,29.95-17,41.3-18.95-4.93-21.82-8.38-.52-21.55-6.05-40.91-10.71-45.64-11-47.87-46-35.21-84.47,8.57-26,22.34-50.89,32.72-58.92,23.9-18.5-8.85-6.07-2.55-17.69,3.54-6.55,18.8-9.74,28.48-11.91,14.25-3.19,38.82-.16,68.62,8.09,16.93,4.69,38.61,7.74,59.52,6.24,50.17-3.58,56.39-55.62,109.1-46,6.76,1.23,5,2.91,53.9,19.47C821.57,323.08,830.05,326,839.4,324c20.79-4.49,30.47-27.35,36.61-41,17.69-39.3,1.89-58.5,20.43-79.62,9.69-11,27.86-21.75,45.29-18.06,31,6.55,52.4,56.2,60.57,103.49a258.39,258.39,0,0,1,3.63,36.21c.57,19.9-13.4,35-12.88,45.49,2.39,47.9,38.51,78.22,75.87,87.24,2.46.6,25.57-2.84,31.7-13.9,4.15-7.5-2.21-14.56,1.64-32,1.78-8,3-14.32,7.9-18.86,9.66-8.82,19.82.34,33.93-6.18,8.65-4,17.86-13.73,19.24-25.25-8.29-1.22-46.21,5.94-70.39,20.2-17,10.05-26.18,24.23-22.77,26.63-.65-.36,2.46-2.9,9.26-8.28,12.23-2.6,33.24-16.57,49.26-37.16,27.11-34.81,50.76-70.4,69.2-84.86,19.33-3.69,37.65-14.89,58.57-28.88,12.54-8.38,28.77-20.65,39.22-25.28,28.53-12.64,10.88-14.49,14.12,75.46.36,9.88,5.61,15.72,13,19.53,12,6.23,30.54,11.07,46.26,19.06"/><path class="cls-6" d="M.19,446.71c43.17-14.8,122.39,20.39,135.43-3.73,24.29-44.91,45.64,19.38,73.39,74.26,6.79,13.43,8,27.4,8.81,37.5,3.39,43.78,93.69,87.25,142.53,77.43,5.53-1.11,10.86-2.54,15-5.56,12-8.77,46.69-27,77.15-50,24.16-18.25,40.57-35.09,58.25-45.22,29.68-16.86,41.43-18.16-2.9-20.71-7.63-.44-19.89-6.17-38.35-11C425.6,488.1,424,453.53,437,415.16c8.77-25.82,22.44-50.53,32.82-58.66,23.47-18.38-8.36-6.4-2.1-18,3.59-6.62,18.61-9.91,28.16-12.23,14.2-3.45,38.48-1,68.27,7.05A184.09,184.09,0,0,0,623.47,339c49.76-3.73,56.8-54.57,109.12-44.64,6.69,1.27,5.06,3,52.93,19.25,39.44,13.56,47.81,16.57,57,14.65,20.4-4.23,30-26.51,36-39.74,17.46-38.21,2-56.83,20.23-77.28,9.5-10.67,27.3-21.06,44.35-17.33,30.35,6.64,51.27,55.44,59.16,101.89a253.34,253.34,0,0,1,3.45,35.59c.51,19.53-13.22,34.41-12.77,44.67,2.09,47,37.32,76.4,73.42,85.69,2.35.6,24.85-2.69,30.76-13.47,4-7.29-2.28-14.15,1.41-31.13,1.71-7.82,2.81-13.94,7.6-18.35,9.37-8.57,19.23.42,32.95-5.9,8.39-3.87,17.32-13.32,18.6-24.54-8.8-.67-47.15,7.25-70.94,22.6-16.84,10.87-25.31,26.05-21,29.05-.22-.08,3.37-2.38,10.55-7.57,12.86-2.44,34.31-16.32,50.37-37.11,27.3-35.35,50.61-71.48,69.31-86.91,19.27-4.32,37.68-16,59-30.34,12.64-8.52,29.2-21,39.92-25.38,28.64-11.75,10.57-11.65,14.55,78.58.44,9.95,5.69,16,13,20,12,6.56,30.42,12.06,46.54,20.31"/><path class="cls-6" d="M.19,455.63c43.86-15.23,121.94,18.89,135-4.61,24.37-43.77,44.62,20,73.56,74.5,7,13.17,8.44,27,9.54,36.92,4.82,43.42,94.56,86,142.87,75.74,5.47-1.17,10.76-2.65,14.83-5.72,12.06-9.09,46.12-27.72,75.76-51,23.86-18.7,39.56-35.73,57.11-45.82,29.41-16.77,41.57-17.39-.87-19.61-6.88-.36-18.23-6.28-35.8-11.32C430.13,492.69,429,458.6,442.45,420.3c9-25.63,22.53-50.17,32.91-58.39,23-18.27-7.87-6.74-1.64-18.23,3.62-6.71,18.42-10.09,27.84-12.56,14.15-3.71,38.13-1.8,67.92,6a185.45,185.45,0,0,0,59.15,5.12C678,338.34,685.84,288.7,737.76,299c6.63,1.31,5.13,3,52,19,38.61,13.34,46.87,16.4,56,14.59,20-4,29.43-25.68,35.38-38.5,17.24-37.11,2.19-55.17,20-74.95,9.31-10.31,26.74-20.36,43.41-16.59,29.71,6.72,50.14,54.69,57.75,100.3a247.8,247.8,0,0,1,3.28,35c.44,19.16-13,33.76-12.66,43.85,1.77,46,36.14,74.56,71,84.13,2.23.61,24.13-2.55,29.81-13,3.85-7.09-2.34-13.75,1.19-30.29,1.62-7.61,2.65-13.57,7.29-17.85,9.08-8.33,18.64.5,32-5.62,8.13-3.73,16.79-12.92,18-23.82-9.3-.13-48.08,8.56-71.49,25-16.64,11.69-24.11,27.42-19.26,31.46.23.19,4.26-1.85,11.83-6.86,13.49-2.28,35.38-16.07,51.48-37.06,27.5-35.89,50.46-72.55,69.42-89,19.2-5,37.71-17.08,59.38-31.8,12.76-8.66,29.63-21.3,40.63-25.47,28.75-10.89,10.27-8.82,15,81.69.53,10,5.79,16.2,13.14,20.44,11.94,6.88,30.29,13,46.82,21.55"/><path class="cls-6" d="M.19,464.54c44.55-15.65,121.5,17.41,134.62-5.47,24.45-42.65,43.6,20.6,73.74,74.73,7.19,12.91,8.85,26.58,10.27,36.34C225.08,613.21,314.25,655,362,644.19c5.42-1.22,10.67-2.77,14.68-5.88,12.13-9.41,45.55-28.42,74.38-51.87,23.55-19.16,38.54-36.36,56-46.42,29.14-16.67,41.71-16.65,1.16-18.5-6.13-.28-16.56-6.4-33.24-11.62-40.29-12.63-40.85-46.23-27.06-84.47,9.17-25.42,22.63-49.8,33-58.12,22.62-18.14-7.38-7.07-1.19-18.5,3.67-6.78,18.23-10.26,27.52-12.88,14.1-4,37.78-2.62,67.58,5,16,4.08,37.58,6.31,58.95,4.55,49-4.05,57.63-52.51,109.16-41.9,6.56,1.35,5.23,3,51,18.81,37.81,13,45.93,16.22,54.89,14.53,19.63-3.71,28.91-24.85,34.77-37.26,17-36,2.34-53.51,19.84-72.62,9.12-10,26.18-19.67,42.47-15.86,29.07,6.81,49,53.93,56.35,98.7a244.09,244.09,0,0,1,3.1,34.35c.37,18.79-12.88,33.12-12.56,43,1.46,45.08,35,72.71,68.53,82.57,2.11.62,23.4-2.41,28.86-12.59,3.69-6.89-2.41-13.35,1-29.46,1.54-7.4,2.5-13.19,7-17.34,8.8-8.08,18,.58,31-5.34,7.86-3.6,16.25-12.52,17.34-23.11-9.82.42-49,9.88-72,27.41-16.43,12.51-23.46,29.5-17.51,33.87.66.48,5.17-1.32,13.13-6.14,14.1-2.12,36.45-15.83,52.57-37,27.71-36.42,50.32-73.62,69.54-91,19.14-5.59,37.74-18.17,59.79-33.26,12.86-8.8,30.06-21.64,41.33-25.57,28.85-10,10-6,15.4,84.8.61,10.11,5.87,16.45,13.21,20.9,11.9,7.21,30.17,14,47.12,22.81"/><path class="cls-6" d="M.19,473.45c45.23-16.06,121.06,15.92,134.22-6.34,24.52-41.51,42.55,21.21,73.9,75,7.39,12.67,9.27,26.18,11,35.77,7.73,42.73,96.31,83.61,143.56,72.36,5.37-1.27,10.57-2.88,14.53-6,12.21-9.73,45-29.14,73-52.78,23.25-19.63,37.53-37,54.82-47,28.87-16.59,41.85-16,3.19-17.4-5.38-.2-14.87-6.51-30.68-11.93-38.47-13.18-38.51-46.29-24.34-84.46,9.36-25.23,22.72-49.43,33.1-57.86,22.2-18-6.89-7.41-.73-18.77,3.71-6.86,18-10.44,27.2-13.2,14-4.23,37.43-3.44,67.23,3.91,15.75,3.89,37.24,5.85,58.76,4,48.54-4.19,58-51.47,109.18-40.52,6.5,1.39,5.29,3.1,50,18.58,37,12.8,45,16.05,53.83,14.47,19.24-3.45,28.4-24,34.16-36,16.78-34.93,2.48-51.84,19.64-70.28,8.94-9.61,25.62-19,41.53-15.13,28.43,6.89,47.88,53.17,54.94,97.11a238.55,238.55,0,0,1,2.93,33.72c.29,18.43-12.71,32.48-12.45,42.22,1.15,44.14,33.82,70.85,66.08,81,2,.63,22.68-2.26,27.92-12.15,3.53-6.67-2.48-12.94.72-28.61,1.47-7.2,2.35-12.83,6.68-16.84,8.49-7.86,17.46.66,30-5.06,7.61-3.46,15.72-12.11,16.71-22.39-10.32,1-49.95,11.19-72.61,29.81-16.22,13.33-22.64,31.38-15.74,36.28,1.09.77,6.06-.79,14.41-5.43,14.73-2,37.52-15.58,53.68-37,27.91-37,50.17-74.69,69.65-93.05,19.07-6.22,37.78-19.26,60.2-34.72,13-8.94,30.48-22,42-25.66,28.94-9.21,9.67-3.14,15.83,87.91.69,10.18,6,16.69,13.29,21.35,11.86,7.53,30.05,15,47.4,24.06"/><path class="cls-6" d="M.19,482.37C46.11,465.88,120.81,496.8,134,475.15c24.6-40.37,41.49,21.83,74.08,75.2,7.58,12.41,9.69,25.78,11.73,35.19,9.2,42.39,97.18,82.39,143.9,70.67,5.32-1.33,10.47-3,14.38-6.21,12.28-10,44.39-29.85,71.6-53.69,22.95-20.1,36.5-37.67,53.68-47.62,28.56-16.54,42-15.32,5.23-16.29-4.64-.12-13.18-6.62-28.14-12.23-36.62-13.74-36.17-46.36-21.62-84.47,9.56-25,22.82-49.06,33.2-57.58,21.78-17.89-6.4-7.75-.28-19,3.75-6.94,17.85-10.63,26.88-13.53,14-4.5,37.07-4.26,66.88,2.87,15.46,3.69,36.9,5.37,58.58,3.42,48.12-4.34,58.45-50.43,109.19-39.14,6.44,1.43,5.37,3.17,49.1,18.36,36.16,12.56,44.06,15.87,52.75,14.4C874,342.27,883,322.29,888.7,310.68c16.55-33.83,2.63-50.18,19.43-67.94,8.76-9.26,25.07-18.29,40.6-14.39,27.79,7,46.74,52.41,53.53,95.51A233.17,233.17,0,0,1,1005,357c.22,18.05-12.54,31.82-12.35,41.4.85,43.2,32.69,69,63.64,79.45,1.88.64,22-2.12,27-11.71,3.38-6.47-2.55-12.54.49-27.77,1.39-7,2.2-12.46,6.38-16.34,8.2-7.61,16.87.74,29-4.77,7.34-3.34,15.18-11.72,16.07-21.69-10.83,1.51-50.88,12.51-73.16,32.22-16,14.16-21.79,33.22-14,38.69,1.53,1.06,7-.26,15.7-4.72,15.36-1.8,38.59-15.33,54.78-36.93,28.11-37.5,50-75.76,69.77-95.1,19-6.86,37.81-20.36,60.61-36.18,13.08-9.08,30.89-22.33,42.73-25.76,29-8.39,9.37-.3,16.25,91,.78,10.26,6,16.94,13.37,21.81,11.82,7.86,29.93,16,47.69,25.31"/><path class="cls-6" d="M.19,491.28c46.61-16.91,120.18,12.94,133.41-8.09C158.27,444,174,505.64,207.85,558.63c7.77,12.16,10.11,25.37,12.46,34.61,10.69,42,98.05,81.18,144.25,69,5.26-1.39,10.36-3.13,14.22-6.38,12.35-10.38,43.81-30.59,70.22-54.6,22.63-20.59,35.48-38.31,52.53-48.22,28.29-16.46,42.11-14.78,7.26-15.19-3.89,0-11.47-6.73-25.58-12.53-34.75-14.31-33.84-46.44-18.9-84.47,9.75-24.83,22.91-48.7,33.29-57.32,21.37-17.75-5.9-8.08.18-19.31,3.79-7,17.66-10.81,26.56-13.85,13.95-4.77,36.71-5.07,66.53,1.82,15.16,3.51,36.56,4.91,58.38,2.86,47.72-4.48,58.87-49.39,109.22-37.76,6.37,1.47,5.43,3.24,48.14,18.14,35.33,12.32,43.12,15.69,51.68,14.33,18.47-2.93,27.37-22.34,33-33.54,16.31-32.72,2.77-48.51,19.23-65.61C919,241.7,935,233,950.13,237c27.15,7.05,45.61,51.65,52.12,93.91a228,228,0,0,1,2.58,32.48c.16,17.69-12.36,31.18-12.24,40.59.54,42.25,31.58,67.07,61.2,77.89,1.77.65,21.22-2,26-11.28,3.23-6.26-2.61-12.13.26-26.93,1.32-6.78,2-12.08,6.07-15.83,7.92-7.37,16.28.82,28-4.49,7.09-3.2,14.65-11.32,15.45-21-11.35,2.05-51.81,13.82-73.72,34.62-15.79,15-20.94,35.05-12.23,41.09,2,1.36,7.28-1.31,17-4,15.48-4.29,39.65-15.08,55.88-36.88,28.31-38,49.88-76.84,69.88-97.15,19-7.49,37.84-21.45,61-37.64,13.19-9.21,31.32-22.69,43.44-25.85,29.1-7.6,9.08,2.53,16.68,94.13.86,10.33,6.13,17.18,13.45,22.27,11.77,8.18,29.81,16.94,48,26.56"/><path class="cls-6" d="M.19,500.19c47.29-17.33,119.74,11.46,133-9,24.76-38.1,39.33,23.08,74.43,75.68,7.95,11.91,10.54,25,13.19,34,12.19,41.72,98.92,80,144.59,67.3,5.21-1.45,10.26-3.24,14.07-6.54,12.41-10.72,43.22-31.34,68.83-55.52,22.32-21.07,34.47-38.94,51.39-48.82,28-16.36,42.24-14.39,9.29-14.08-3.15,0-9.74-6.82-23-12.84-32.84-14.86-31.51-46.5-16.18-84.47,10-24.63,23-48.32,33.38-57,21-17.63-5.4-8.42.64-19.59,3.84-7.09,17.48-11,26.24-14.17,13.9-5,36.36-5.89,66.19.78,14.85,3.31,36.21,4.43,58.19,2.29,47.31-4.62,59.28-48.36,109.24-36.39,6.31,1.52,5.5,3.32,47.18,17.92,34.5,12.1,42.18,15.51,50.61,14.27,18.07-2.67,26.85-21.5,32.34-32.3,16.08-31.62,2.92-46.84,19-63.27,8.39-8.55,24-16.89,38.72-12.92,26.51,7.14,44.48,50.9,50.71,92.32a222.46,222.46,0,0,1,2.41,31.85c.09,17.32-12.19,30.54-12.13,39.78.23,41.3,28.94,70.41,58.75,76.33,1.51.94,20.5-1.83,25.07-10.84,3.08-6.05-2.68-11.72,0-26.09,1.24-6.58,1.9-11.71,5.77-15.32,7.63-7.13,15.69.89,27.06-4.22,6.82-3.07,14.12-10.92,14.81-20.26-11.85,2.6-52.73,15.15-74.27,37-15.58,15.81-20.08,36.87-10.47,43.5,2.38,1.65,8.23-.75,18.27-3.29,16.16-4.08,40.72-14.83,57-36.84,28.51-38.57,49.74-77.9,70-99.19,18.88-8.12,37.87-22.54,61.42-39.1,13.3-9.35,31.73-23,44.14-25.95,29.17-6.81,8.79,5.37,17.11,97.25.94,10.4,6.22,17.42,13.53,22.72,11.73,8.5,29.68,17.92,48.25,27.81"/><path class="cls-6" d="M.19,509.11c48-17.76,119.3,10,132.6-9.83,24.83-37,38.22,23.7,74.6,75.91,8.13,11.66,11,24.56,13.92,33.45C235,650,321.1,687.38,366.24,674.25c5.16-1.5,10.16-3.36,13.92-6.7,12.47-11,42.62-32.1,67.44-56.43,22-21.58,33.46-39.58,50.25-49.42,27.75-16.27,42.33-14.32,11.32-13-2.41.11-9.33-4.74-20.47-13.14-33.2-9.51-29.18-46.57-13.46-84.47,10.13-24.44,23.1-47.95,33.47-56.78,20.55-17.48-4.91-8.76,1.1-19.85,3.87-7.18,17.28-11.18,25.92-14.5,13.85-5.31,36-6.7,65.84-.27,14.55,3.14,35.87,4,58,1.73,46.91-4.75,59.7-47.32,109.26-35,6.25,1.55,5.57,3.38,46.22,17.7,33.68,11.86,41.25,15.33,49.55,14.2,17.68-2.41,26.33-20.66,31.73-31.06,15.85-30.52,3.06-45.18,18.83-60.93,8.2-8.2,23.4-16.2,37.78-12.19,25.88,7.22,43.35,50.14,49.31,90.73a218.58,218.58,0,0,1,2.23,31.23c0,16.95-12,29.89-12,38.95-.06,40.36,27.66,68.83,56.3,74.77,1.39,1,19.78-1.68,24.13-10.39,2.93-5.85-2.74-11.32-.2-25.26,1.17-6.37,1.75-11.32,5.47-14.81,7.34-6.89,15.1,1,26.07-3.94,6.57-2.94,13.59-10.51,14.18-19.55-12.36,3.15-53.64,16.47-74.82,39.43-15.36,16.65-19.22,38.7-8.72,45.92,2.82,1.94,9.19-.19,19.56-2.58,16.84-3.87,41.79-14.58,58.09-36.79,28.7-39.12,49.59-79,70.12-101.24,18.81-8.75,37.9-23.63,61.82-40.56,13.41-9.49,32.14-23.42,44.84-26,29.24-6,8.5,8.2,17.53,100.35,1,10.48,6.31,17.67,13.61,23.18,11.69,8.83,29.56,18.9,48.54,29.06"/><path class="cls-6" d="M.19,518c48.67-18.18,118.86,8.48,132.2-10.7,24.91-35.83,37.09,24.35,74.77,76.15,8.3,11.41,11.4,24.15,14.64,32.87,15.26,41,100.67,77.52,145.28,63.92,5.11-1.56,10.05-3.48,13.77-6.86,12.53-11.39,42-32.87,66.06-57.35,21.68-22.08,32.44-40.21,49.1-50,27.48-16.17,42.32-14.91,13.35-11.87-1.69.18-7.75-4.77-17.92-13.45-31.55-9.79-26.85-46.63-10.74-84.47C491,432,503.91,408.66,514.27,399.73c20.14-17.34-4.42-9.09,1.55-20.12,3.92-7.25,17.1-11.37,25.6-14.82,13.8-5.59,35.63-7.51,65.5-1.31,14.24,2.95,35.52,3.5,57.8,1.16,46.5-4.88,60.11-46.29,109.28-33.63,6.18,1.59,5.64,3.45,45.26,17.48,32.85,11.62,40.31,15.15,48.47,14.13,17.29-2.15,25.82-19.82,31.13-29.82,15.62-29.41,3.21-43.51,18.62-58.6,8-7.84,22.85-15.5,36.85-11.44,25.24,7.3,42.21,49.38,47.9,89.12a213.33,213.33,0,0,1,2.06,30.61c-.06,16.58-11.84,29.25-11.93,38.14-.36,39.42,26.39,67.23,53.86,73.21,1.27,1,19.06-1.54,23.19-10,2.76-5.64-2.81-10.91-.43-24.41,1.08-6.16,1.59-11,5.16-14.31,7-6.65,14.5,1,25.08-3.66,6.31-2.8,13.06-10.11,13.56-18.83-12.87,3.69-54.56,17.79-75.39,41.83-15.13,17.47-18.35,40.52-7,48.33,3.25,2.23,10.14.37,20.85-1.86,17.51-3.66,42.86-14.34,59.19-36.75,28.9-39.66,49.44-80.05,70.23-103.29,18.74-9.39,37.93-24.72,62.22-42,13.53-9.63,32.57-23.79,45.55-26.14,29.31-5.3,8.21,11,18,103.47,1.11,10.55,6.4,17.9,13.69,23.63,11.65,9.15,29.44,19.88,48.82,30.32"/><path class="cls-6" d="M.19,526.93c49.35-18.6,118.42,7,131.79-11.57,25-34.7,36,25,75,76.39,8.47,11.16,11.84,23.75,15.37,32.29,16.82,40.7,101.54,76.3,145.62,62.23,5.06-1.61,9.95-3.6,13.62-7,12.59-11.73,41.4-33.65,64.67-58.26,21.36-22.6,31.43-40.85,48-50.62,27.21-16.09,42.56-9.16,15.38-10.77-.89.55-6.17-4.8-15.36-13.75-29.91-10.08-24.53-46.71-8-84.47,10.51-24,23.3-47.21,33.66-56.24,19.73-17.2-3.93-9.43,2-20.4,4-7.33,16.9-11.55,25.28-15.14,13.74-5.87,35.25-8.31,65.14-2.36,13.94,2.78,35.19,3,57.62.6,46.09-5,60.52-45.25,109.3-32.25,6.12,1.63,5.7,3.52,44.3,17.25,32,11.4,39.36,15,47.4,14.07,16.89-1.9,25.31-19,30.52-28.58,15.39-28.3,3.35-41.85,18.42-56.26,7.84-7.5,22.29-14.81,35.91-10.71,24.6,7.39,41.08,48.62,46.49,87.53a207.93,207.93,0,0,1,1.89,30c-.13,16.21-11.67,28.6-11.82,37.33-.67,38.46,25.11,65.64,51.41,71.65,1.14,1,18.33-1.4,22.24-9.52,2.61-5.44-2.88-10.51-.66-23.58,1-5.95,1.44-10.57,4.85-13.8,6.76-6.4,13.92,1.13,24.11-3.38,6-2.67,12.52-9.71,12.92-18.12-13.38,4.24-55.47,19.12-75.94,44.24-14.91,18.3-17.49,42.33-5.2,50.74,3.69,2.52,11.09.94,22.14-1.15,18.18-3.44,43.93-14.09,60.29-36.7,29.1-40.2,49.3-81.13,70.35-105.34,18.68-10,38-25.81,62.63-43.48,13.63-9.76,34.33-20.06,46.25-26.23,26.4-13.68,7.93,13.88,18.39,106.57,1.19,10.63,6.48,18.15,13.77,24.1,11.6,9.47,29.31,20.85,49.11,31.56"/><path class="cls-6" d="M.19,535.85c50-19,118,5.5,131.39-12.45,25.07-33.56,34.81,25.66,75.12,76.63,8.64,10.92,12.28,23.34,16.1,31.71,18.39,40.35,102.41,75.08,146,60.54,5-1.67,9.84-3.72,13.46-7.18C394.87,673,423,650.66,445.52,625.92c21-23.12,30.4-41.48,46.81-51.22,26.94-16,42.69-8.26,17.41-9.66-.14.64-4.58-4.84-12.8-14-28.26-10.37-22.22-46.78-5.31-84.48,10.7-23.84,23.4-46.83,33.76-56,19.33-17.05-3.44-9.76,2.46-20.66,4-7.41,16.71-11.75,25-15.47,13.69-6.16,34.89-9.12,64.8-3.4,13.63,2.6,34.84,2.57,57.42,0,45.69-5.14,60.94-44.22,109.32-30.88,6.06,1.68,5.77,3.6,43.34,17,31.21,11.16,38.43,14.8,46.34,14,16.49-1.66,24.79-18.14,29.91-27.35,15.16-27.2,3.5-40.18,18.22-53.92,7.65-7.15,21.74-14.11,35-10,24,7.48,40,47.87,45.08,85.94a202.48,202.48,0,0,1,1.71,29.35c-.19,15.85-11.49,28-11.71,36.51-1,37.52,23.84,64.05,49,70.1,1,1,17.61-1.25,21.29-9.09,2.46-5.22-2.94-10.1-.89-22.73.93-5.75,1.3-10.2,4.55-13.3,6.47-6.16,13.33,1.21,23.12-3.09,5.79-2.55,12-9.31,12.3-17.41-13.89,4.78-56.39,20.43-76.5,46.64C1010.37,502,1008.42,527,1021.61,536c4.11,2.81,12,1.51,23.43-.44,18.84-3.22,45-13.84,61.39-36.66,29.29-40.74,45.1-86.27,70.46-107.38,16.49-13.72,38-26.9,63-44.94,13.74-9.9,34.63-20.4,47-26.33,26.77-12.88,7.65,16.72,18.81,109.69,1.29,10.7,6.58,18.39,13.85,24.55,11.57,9.79,29.2,21.83,49.4,32.81"/><path class="cls-6" d="M.19,544.76c50.73-19.44,117.55,4,131-13.32,25.15-32.42,33.65,26.33,75.3,76.86,8.8,10.69,12.73,22.94,16.83,31.14,20,40,103.28,73.86,146.31,58.85,4.94-1.72,9.73-3.85,13.31-7.34,12.69-12.43,40.16-35.24,61.9-60.09,20.69-23.66,29.39-42.12,45.67-51.82,26.67-15.9,42.82-7.37,19.45-8.56.61.73-3-4.87-10.26-14.36-26.61-10.66-19.89-46.85-2.58-84.47C508,448,520.6,425.19,531,416c18.92-16.9-2.94-10.11,2.92-20.94,4-7.49,16.52-11.94,24.64-15.79,13.64-6.45,34.51-9.92,64.45-4.45,13.32,2.44,34.5,2.12,57.23-.53,45.28-5.26,61.35-43.19,109.34-29.5,6,1.71,5.84,3.67,42.38,16.81,30.38,10.93,37.72,16,45.27,13.95,15.6-4.19,24.27-17.3,29.3-26.1,14.93-26.09,3.64-38.53,18-51.6,7.46-6.79,21.18-13.41,34-9.24,23.32,7.57,38.81,47.11,43.66,84.34a197.3,197.3,0,0,1,1.54,28.74c-.26,15.47-11.32,27.31-11.6,35.69-1.26,36.57,22.56,62.46,46.52,68.53.89,1,16.88-1.1,20.34-8.64,2.31-5-3-9.7-1.12-21.9.86-5.54,1.15-9.82,4.25-12.79,6.18-5.91,12.73,1.29,22.14-2.81,5.52-2.41,11.45-8.91,11.66-16.7-14.4,5.33-57.3,21.76-77.05,49.05-14.46,20-15.78,46-1.69,55.56,4.54,3.11,13,2.07,24.72.27,19.51-3,46-13.6,62.49-36.61,29.49-41.28,45-87.22,70.58-109.42,16.41-14.23,38-28,63.44-46.41,13.86-10,34.94-20.77,47.66-26.43,27.13-12.06,7.37,19.56,19.24,112.8,1.37,10.78,6.66,18.64,13.93,25,11.53,10.11,29.07,22.81,49.68,34.07"/><path class="cls-6" d="M.19,553.67c51.41-19.86,117.11,2.53,130.58-14.18,25.23-31.3,32.46,27,75.47,77.09,9,10.45,13.18,22.52,17.55,30.56,21.6,39.63,104.16,72.63,146.66,57.16,4.89-1.78,9.63-4,13.16-7.5,12.74-12.78,39.52-36,60.51-61,20.35-24.19,28.38-42.75,44.53-52.42,26.4-15.8,43-6.47,21.48-7.45,1.36.82-1.42-4.9-7.7-14.66-25-11-17.58-46.93.13-84.47,11.06-23.46,23.6-46.09,33.95-55.44,18.52-16.74-2.45-10.44,3.38-21.21C544,392.58,556.21,388,564.2,384c13.58-6.75,34.14-10.73,64.11-5.5,13,2.27,34.15,1.65,57-1.1,44.88-5.38,61.77-42.16,109.37-28.12,5.93,1.75,5.9,3.74,41.42,16.59,29.55,10.69,36.76,15.83,44.2,13.88,15.22-4,23.75-16.46,28.69-24.86,14.7-25,3.79-36.86,17.81-49.26,7.29-6.44,20.63-12.71,33.11-8.51,22.68,7.66,37.67,46.36,42.26,82.75a193.26,193.26,0,0,1,1.36,28.11c-.33,15.11-11.14,26.66-11.5,34.88-1.55,35.62,21.29,60.86,44.08,67,.76,1.06,16.16-1,19.4-8.2,2.15-4.82-3.08-9.3-1.36-21.06.78-5.33,1-9.45,3.94-12.29,5.9-5.67,12.15,1.37,21.16-2.53,5.27-2.28,10.92-8.51,11-16-14.91,5.88-58.2,23.09-77.61,51.46-14.22,20.79-14.91,47.81.08,58,5,3.39,13.9,2.64,26,1,20.17-2.76,47.12-13.35,63.6-36.56,29.68-41.83,44.81-88.17,70.69-111.47,16.35-14.72,38.07-29.09,63.85-47.87,14-10.17,35.24-21.16,48.36-26.52,27.5-11.24,7.1,22.39,19.67,115.91,1.45,10.85,6.75,18.87,14,25.46a268.27,268.27,0,0,0,50,35.32"/><path class="cls-6" d="M.19,562.59c52.1-20.29,116.67,1,130.18-15.06,25.31-30.16,31.27,27.71,75.63,77.33,9.13,10.21,13.64,22.11,18.29,30,23.22,39.25,105,71.41,147,55.48,4.84-1.84,9.52-4.1,13-7.68,12.78-13.12,38.87-36.86,59.13-61.91,20-24.74,27.36-43.39,43.38-53,26.13-15.7,43.08-5.57,23.51-6.34,2.11.91.16-4.94-5.15-15-23.31-11.24-15.26-47,2.85-84.48,11.25-23.26,23.71-45.7,34.05-55.17,18.12-16.58-2-10.77,3.83-21.48,4.12-7.64,16.13-12.33,24-16.42,13.52-7,33.75-11.53,63.75-6.55,12.7,2.11,33.82,1.2,56.85-1.65,44.47-5.51,62.18-41.14,109.38-26.75,5.87,1.79,6,3.8,40.46,16.37,28.73,10.46,35.82,15.68,43.13,13.81,14.85-3.79,23.24-15.61,28.09-23.62,14.47-23.86,3.94-35.2,17.61-46.92,7.1-6.09,20.08-12,32.17-7.77,22,7.74,36.54,45.59,40.85,81.15a187.82,187.82,0,0,1,1.19,27.48c-.4,14.74-11,26-11.4,34.07-1.83,34.66,20,59.27,41.64,65.41.63,1.08,15.44-.82,18.45-7.77,2-4.61-3.14-8.89-1.59-20.22.71-5.12.85-9.07,3.64-11.77,5.6-5.44,11.55,1.44,20.18-2.26,5-2.14,10.38-8.1,10.4-15.27-15.42,6.42-59.11,24.4-78.17,53.86-14,21.62-14,49.62,1.84,60.38,5.4,3.68,14.83,3.21,27.29,1.69,20.82-2.53,48.18-13.1,64.69-36.51,29.88-42.37,44.69-89.11,70.81-113.52,16.29-15.22,38.11-30.18,64.26-49.33,14.08-10.31,35.53-21.56,49.06-26.62,27.86-10.4,6.83,25.22,20.09,119,1.55,10.92,6.85,19.11,14.09,25.92a254.74,254.74,0,0,0,50.25,36.56"/><path class="cls-6" d="M.19,571.5C53,550.79,116.42,571.05,130,555.57c25.39-29,30.07,28.42,75.81,77.57,9.29,10,14.09,21.69,19,29.4,24.85,38.86,105.9,70.18,147.34,53.79,4.79-1.9,9.41-4.22,12.85-7.84,12.83-13.47,38.23-37.68,57.75-62.83s26.35-44,42.24-53.62c25.86-15.61,43.22-4.68,25.54-5.24,2.86,1,1.74-5-2.59-15.27C486.26,560,495,524.46,513.49,487.06c11.42-23.07,23.81-45.33,34.14-54.9,17.73-16.43-1.47-11.12,4.29-21.75,4.16-7.72,15.93-12.54,23.68-16.75,13.46-7.34,33.37-12.32,63.4-7.59,12.39,1.94,33.47.74,56.66-2.22,44.06-5.63,62.59-40.11,109.4-25.37,5.8,1.82,6,3.87,39.5,16.14,27.9,10.23,34.86,15.54,42.06,13.75,14.47-3.59,22.72-14.77,27.48-22.38,14.24-22.74,4.08-33.54,17.41-44.59,6.92-5.73,19.52-11.31,31.23-7,21.42,7.83,35.4,44.84,39.44,79.55a182.72,182.72,0,0,1,1,26.87c-.47,14.37-10.8,25.37-11.29,33.24-2.13,33.71,18.74,57.68,39.19,63.86.5,1.1,14.71-.68,17.5-7.33,1.85-4.4-3.21-8.5-1.82-19.38.63-4.92.7-8.7,3.34-11.27,5.31-5.19,11,1.52,19.19-2,4.75-2,9.86-7.7,9.77-14.56-15.93,7-60,25.73-78.72,56.26-13.76,22.45-13.18,51.44,3.59,62.8,5.84,4,15.76,3.78,28.58,2.41,21.48-2.31,49.25-12.86,65.8-36.48,30.07-42.91,44.57-90.05,70.92-115.56,16.24-15.73,38.14-31.27,64.67-50.79,14.19-10.44,35.83-22,49.76-26.71,28.22-9.56,6.56,28.05,20.52,122.13,1.63,11,6.93,19.36,14.17,26.38a241.55,241.55,0,0,0,50.53,37.81"/><path class="cls-6" d="M.19,580.41c53.47-21.13,115.8-1.94,129.37-16.8,25.47-27.89,28.85,29.15,76,77.81,9.45,9.75,14.55,21.27,19.75,28.82,26.5,38.45,106.76,69,147.68,52.1,4.74-2,9.31-4.34,12.7-8,12.87-13.83,37.57-38.51,56.36-63.74,19.27-25.86,25.34-44.67,41.1-54.23,25.59-15.51,43.35-3.79,27.57-4.13,3.61,1.1,3.33-5,0-15.57-20-11.81-10.63-47.16,8.29-84.48,11.61-22.88,23.92-44.94,34.24-54.63,17.33-16.26-1-11.45,4.74-22,4.21-7.8,15.74-12.73,23.36-17.07,13.4-7.63,33-13.11,63.06-8.64,12.07,1.79,33.13.28,56.46-2.78,43.66-5.74,63-39.09,109.43-24,5.74,1.87,6.1,3.95,38.54,15.93,27.07,10,33.9,15.38,41,13.68,14.09-3.38,22.19-13.92,26.87-21.14,14-21.62,4.23-31.87,17.21-42.25,6.73-5.38,19-10.62,30.29-6.3,20.78,7.92,34.27,44.08,38,78a176,176,0,0,1,.84,26.24c-.53,14-10.61,24.72-11.18,32.43-2.4,32.76,17.47,56.09,36.74,62.29.39,1.12,14-.53,16.56-6.88,1.7-4.2-3.27-8.1-2.05-18.54.56-4.72.55-8.33,3-10.77,5-4.95,10.38,1.59,18.22-1.7,4.48-1.88,9.32-7.3,9.13-13.84-16.43,7.51-60.9,27-79.27,58.66-13.53,23.28-12.31,53.25,5.35,65.2,6.27,4.27,16.69,4.36,29.86,3.13,22.13-2.08,50.32-12.61,66.91-36.43,30.26-43.45,44.47-91,71-117.61,16.19-16.23,38.17-32.35,65.06-52.25,14.31-10.58,36.14-22.44,50.47-26.81,28.58-8.7,6.29,30.89,20.95,125.25,1.71,11.07,7,19.59,14.24,26.83,11.38,11.4,28.59,26.73,50.83,39.07"/><path class="cls-6" d="M.19,589.33c54.16-21.56,115.36-3.43,129-17.67,25.56-26.76,27.63,29.88,76.16,78,9.6,9.52,15,20.85,20.48,28.24,28.16,38,107.63,67.73,148,50.41,4.68-2,9.19-4.47,12.54-8.16,12.9-14.19,36.89-39.35,55-64.66,18.88-26.42,24.32-45.3,40-54.82,25.32-15.42,43.48-2.9,29.6-3,4.36,1.19,4.91-5,2.52-15.87-18.37-12.11-8.33-47.24,11-84.48,11.78-22.69,24-44.56,34.33-54.37,16.94-16.1-.49-11.78,5.2-22.29,4.24-7.87,15.54-12.93,23-17.39,13.33-7.94,35.18-22.6,62.71-9.68,10.74,5,32.78-.18,56.27-3.35,43.25-5.85,63.42-38.06,109.44-22.62,5.68,1.91,6.18,4,37.58,15.7,26.25,9.77,32.94,15.24,39.93,13.62,13.72-3.17,21.67-13.07,26.26-19.9,13.78-20.49,4.38-30.21,17-39.91,6.55-5,18.41-9.92,29.35-5.57,20.15,8,33.13,43.33,36.62,76.37a170.61,170.61,0,0,1,.67,25.61c-.6,13.64-10.44,24.08-11.08,31.62-2.68,31.8,16.2,54.49,34.3,60.73.26,1.14,13.27-.39,15.62-6.45,1.54-4-3.34-7.69-2.28-17.7.47-4.5.39-7.95,2.72-10.26,4.74-4.7,9.78,1.67,17.23-1.41,4.22-1.76,8.79-6.91,8.51-13.14C1050.9,485,1006,505.31,988,538c-13.29,24.11-11.45,55.06,7.1,67.61,6.71,4.56,17.63,2.59,31.16,3.84,22.75,2.1,51.38-12.36,68-36.38,30.46-44,44.38-91.92,71.16-119.66,16.15-16.74,38.21-33.44,65.47-53.71,14.41-10.71,36.45-22.92,51.17-26.9,28.93-7.84,6,33.72,21.37,128.35,1.81,11.15,7.12,19.84,14.33,27.29,11.34,11.72,28.46,27.71,51.11,40.32"/><path class="cls-6" d="M.2,598.24c54.84-22,114.91-4.92,128.55-18.54,25.64-25.62,26.39,30.64,76.33,78.28,9.75,9.3,15.46,20.42,21.2,27.66,29.83,37.59,108.51,66.5,148.38,48.72,4.63-2.07,9.08-4.59,12.39-8.32,12.93-14.55,36.21-40.2,53.59-65.57,18.49-27,23.31-45.94,38.81-55.43,25.05-15.33,43.61-2,31.64-1.92,5.1,1.28,6.49-5.07,5.07-16.18-16.72-12.39-6-47.31,13.72-84.48,12-22.49,24.13-44.17,34.43-54.09,16.55-15.94,0-12.12,5.65-22.56,4.29-8,15.34-13.14,22.72-17.72,13.27-8.24,34.79-23.55,62.37-10.73,10.46,4.86,32.44-.62,56.08-3.91,42.84-6,63.83-37,109.46-21.24,5.61,1.94,6.24,4.09,36.62,15.48,25.42,9.53,32,15.08,38.85,13.55,13.35-3,21.16-12.22,25.66-18.66,13.54-19.35,4.53-28.55,16.8-37.58,6.37-4.68,17.86-9.21,28.42-4.82,19.52,8.1,32,42.57,35.22,74.76a166.81,166.81,0,0,1,.49,25c-.68,13.26-10.26,23.42-11,30.79-3,30.85,14.92,52.91,31.85,59.18.13,1.16,12.55-.24,14.67-6,1.39-3.79-3.4-7.29-2.51-16.86.4-4.3.24-7.58,2.42-9.76,4.45-4.46,9.19,1.75,16.24-1.13,4-1.62,8.26-6.5,7.88-12.43-17.45,8.61-62.7,29.69-80.39,63.48-13.05,24.93-10.57,56.88,8.87,70,7.13,4.85,18.56,3.25,32.44,4.55,23.37,2.19,52.44-12.12,69.11-36.33,30.65-44.55,44.3-92.86,71.27-121.71,16.12-17.25,38.25-34.53,65.88-55.17,14.52-10.85,36.75-23.41,51.87-27,29.28-7,5.76,36.55,21.8,131.47,1.89,11.22,7.21,20.08,14.41,27.75,11.3,12,28.33,28.68,51.39,41.56"/><path class="cls-6" d="M.2,607.15c55.52-22.39,114.48-6.4,128.14-19.41,25.73-24.49,25.15,31.42,76.51,78.52,9.9,9.07,15.92,20,21.93,27.08,31.51,37.14,109.38,65.27,148.72,47,4.58-2.12,9-4.71,12.24-8.48,13-14.91,35.52-41,52.2-66.49,18.09-27.58,22.3-46.57,37.67-56,24.78-15.24,43.74-1.11,33.67-.82,5.85,1.37,8.07-5.1,7.62-16.48-15.07-12.68-3.72-47.4,16.45-84.48,12.13-22.31,24.23-43.79,34.52-53.83,16.16-15.76.5-12.46,6.11-22.83,4.33-8,15.14-13.35,22.4-18,13.2-8.55,34.37-24.48,62-11.77,10.18,4.68,32.1-1.08,55.89-4.48,42.44-6.07,64.25-36,109.49-19.86,5.54,2,6.31,4.16,35.66,15.26,24.59,9.29,31,14.92,37.78,13.48,13-2.75,20.63-11.37,25-17.42,13.31-18.22,4.68-26.89,16.6-35.24,6.19-4.33,17.31-8.51,27.48-4.09,18.89,8.2,30.86,41.81,33.81,73.17a162.78,162.78,0,0,1,.32,24.37c-.75,12.89-10.09,22.77-10.87,30-3.23,29.88,13.65,51.31,29.41,57.62,0,1.17,11.83-.1,13.72-5.58,1.24-3.58-3.46-6.88-2.74-16,.32-4.09.1-7.2,2.11-9.25,4.16-4.22,8.6,1.83,15.27-.85a12.09,12.09,0,0,0,7.25-11.71c-18,9.15-63.6,31-80.95,65.88-12.81,25.76-9.71,58.69,10.62,72.43,7.57,5.14,19.5,3.91,33.73,5.26,24,2.28,53.51-11.87,70.21-36.29,30.84-45.08,44.24-93.78,71.39-123.75,16.1-17.77,38.28-35.61,66.28-56.63,14.64-11,37.08-23.92,52.58-27.09,29.62-6.07,5.5,39.38,22.23,134.58,2,11.28,7.29,20.31,14.48,28.2,11.27,12.36,28.22,29.66,51.68,42.82"/><path class="cls-6" d="M.2,616.07c56.21-22.82,114-7.9,127.74-20.29,25.82-23.35,23.89,32.21,76.68,78.75,10,8.86,16.38,19.57,22.66,26.51,33.18,36.67,110.24,64,149.06,45.34,4.53-2.18,8.86-4.84,12.09-8.64,13-15.28,34.82-41.9,50.82-67.4,17.67-28.17,21.28-47.21,36.52-56.63,24.51-15.14,43.88-.21,35.7.29,6.6,1.46,9.65-5.13,10.18-16.78-13.42-13-1.42-47.48,19.16-84.49,12.31-22.11,24.35-43.4,34.62-53.55,15.78-15.6,1-12.8,6.56-23.11,4.37-8.11,14.94-13.55,22.08-18.36,13.14-8.86,34-25.39,61.67-12.82,9.9,4.49,31.76-1.53,55.7-5,42-6.17,64.66-35,109.5-18.49,5.49,2,6.38,4.24,34.7,15,23.77,9.07,30,14.77,36.72,13.43,12.61-2.54,20.11-10.52,24.44-16.19,13.07-17.07,4.83-25.23,16.4-32.9,6-4,16.75-7.81,26.54-3.36,18.26,8.3,29.73,41.06,32.4,71.58a157.44,157.44,0,0,1,.15,23.74c-.82,12.53-9.91,22.13-10.76,29.17-3.51,28.92,12.37,49.71,27,56-.12,1.2,11.11.05,12.77-5.13,1.09-3.38-3.53-6.49-3-15.18.25-3.89,0-6.83,1.81-8.75,3.87-4,8,1.9,14.28-.57a11,11,0,0,0,6.62-11c-18.48,9.7-64.49,32.33-81.5,68.29-12.57,26.58-8.84,60.5,12.38,74.84,8,5.42,20.42,4.57,35,6,24.61,2.37,54.57-11.62,71.31-36.24,31-45.63,44.17-94.72,71.5-125.8,16.08-18.28,38.32-36.7,66.69-58.09,14.75-11.12,37.4-24.44,53.28-27.19,30-5.18,5.24,42.21,22.65,137.69,2.07,11.36,7.39,20.56,14.57,28.66,11.23,12.68,28.09,30.64,52,44.07"/><path class="cls-6" d="M.2,625c56.9-23.24,113.61-9.38,127.34-21.16,25.9-22.21,22.62,33,76.85,79,10.2,8.65,16.84,19.14,23.39,25.93,34.87,36.18,111.11,62.81,149.4,43.65,4.47-2.23,8.75-5,11.94-8.8,13-15.64,34.1-42.75,49.43-68.32,17.24-28.76,20.27-47.84,35.38-57.22,24.24-15,44,.68,37.73,1.39,7.35,1.55,11.24-5.17,12.73-17.09-11.77-13.25.88-47.56,21.89-84.48,12.48-21.93,24.45-43,34.71-53.29,15.39-15.42,1.48-13.13,7-23.37,4.41-8.19,14.74-13.76,21.76-18.69,13.06-9.17,33.52-26.29,61.32-13.86,9.62,4.3,31.42-2,55.5-5.61,41.64-6.27,65.09-34,109.53-17.11,5.42,2.06,6.45,4.31,33.74,14.82,22.95,8.83,29.06,14.6,35.65,13.36,12.24-2.32,19.58-9.66,23.83-14.94,12.82-15.94,5-23.58,16.2-30.58,5.82-3.63,16.2-7.1,25.6-2.62,17.63,8.4,28.59,40.3,31,70a151,151,0,0,1,0,23.13c-.88,12.15-9.72,21.47-10.65,28.35-3.77,28,11.1,48.12,24.52,54.49-.25,1.22,10.39.19,11.82-4.69.94-3.17-3.59-6.09-3.2-14.35.17-3.68-.2-6.45,1.51-8.23,3.58-3.74,7.42,2,13.3-.3a10,10,0,0,0,6-10.28c-19,10.24-65.38,33.64-82.05,70.69-12.34,27.41-8,62.31,14.13,77.25,8.44,5.71,21.35,5.23,36.31,6.69,25.24,2.44,55.64-11.39,72.41-36.2,31.23-46.18,44.13-95.65,71.62-127.85,16.06-18.8,38.36-37.78,67.1-59.55,14.86-11.25,37.74-25,54-27.28,30.28-4.28,5,45,23.08,140.8,2.16,11.43,7.48,20.8,14.65,29.11,11.19,13,28,31.62,52.24,45.32"/><path class="cls-6" d="M.2,633.89c57.58-23.66,113.17-10.87,126.93-22,26-21.08,21.36,33.85,77,79.22,10.34,8.44,17.3,18.7,24.11,25.35,36.56,35.68,112,61.58,149.76,42a36.52,36.52,0,0,0,11.78-9c13-16,33.38-43.61,48-69.23,16.8-29.36,19.26-48.48,34.24-57.83,24-15,44.14,1.58,39.76,2.5,8.11,1.64,12.82-5.2,15.29-17.39-10.13-13.55,3.18-47.65,24.6-84.48,12.65-21.75,24.57-42.63,34.81-53,15-15.24,2-13.46,7.47-23.64,4.46-8.27,14.54-14,21.44-19,13-9.49,33.08-27.17,61-14.91,9.34,4.11,31.08-2.42,55.31-6.17,41.23-6.37,65.5-32.95,109.55-15.73,5.36,2.1,6.51,4.38,32.78,14.59,22.12,8.61,28.08,14.44,34.58,13.3a38.66,38.66,0,0,0,23.22-13.7c12.58-14.78,5.14-21.92,16-28.24,5.65-3.28,15.66-6.4,24.67-1.89,17,8.51,27.45,39.55,29.59,68.39a147,147,0,0,1-.21,22.5c-.94,11.78-9.55,20.82-10.55,27.53-4,27,9.83,46.53,22.08,52.94-.38,1.23,9.67.33,10.88-4.26.78-3-3.66-5.68-3.44-13.5.1-3.48-.35-6.08,1.21-7.73,3.28-3.5,6.82,2,12.31,0a8.94,8.94,0,0,0,5.36-9.57c-19.5,10.79-66.28,35-82.61,73.09-12.1,28.24-7.11,64.14,15.89,79.67,8.87,6,22.27,5.9,37.59,7.4,25.87,2.53,56.7-11.14,73.52-36.15,31.41-46.72,44.08-96.59,71.73-129.9,16-19.33,38.4-38.87,67.5-61,15-11.39,38.1-29.28,54.69-27.38,30.58,3.51,4.73,47.87,23.5,143.91,2.25,11.51,7.58,21,14.73,29.58,11.16,13.32,27.85,32.59,52.54,46.57"/><path class="cls-6" d="M.2,642.81c58.27-24.09,112.74-12.36,126.53-22.9,26.08-19.94,20.08,34.7,77.2,79.46,10.49,8.23,17.76,18.26,24.84,24.77,38.25,35.16,112.85,60.35,150.1,40.28a37,37,0,0,0,11.63-9.13c13-16.38,32.65-44.47,46.66-70.15,16.34-29.95,18.24-49.11,33.1-58.42,23.69-14.86,44.26,2.47,41.78,3.6,8.86,1.73,14.41-5.23,17.84-17.69-8.47-13.84,5.48-47.74,27.33-84.49,12.82-21.56,24.68-42.24,34.9-52.75,14.64-15.07,2.46-13.81,7.93-23.92,4.49-8.34,14.33-14.17,21.12-19.33,12.9-9.8,32.62-28,60.62-15.95,9.08,3.91,30.74-2.87,55.13-6.74,40.82-6.47,65.91-31.93,109.56-14.35,5.3,2.13,6.58,4.45,31.83,14.37,21.29,8.37,27.1,14.26,33.5,13.23a37.88,37.88,0,0,0,22.62-12.46c12.32-13.62,5.29-20.26,15.79-25.9,5.47-2.94,15.1-5.69,23.73-1.15,16.37,8.6,26.32,38.79,28.18,66.79a141.68,141.68,0,0,1-.38,21.87c-1,11.42-9.37,20.18-10.44,26.72-4.28,26,8.55,44.94,19.62,51.38-.5,1.25,9,.46,9.94-3.82.63-2.76-3.72-5.29-3.67-12.67,0-3.27-.5-5.69.9-7.22,3-3.26,6.24,2.12,11.34.27a8,8,0,0,0,4.72-8.86C1014.15,529,967,553.91,951,593.14c-11.85,29.06-6.24,66,17.66,82.08,9.3,6.29,23.19,6.56,38.88,8.11,26.49,2.62,57.76-10.89,74.62-36.11,31.6-47.26,44-97.52,71.84-131.94,16-19.85,38.44-39.95,67.91-62.47,15.09-11.52,38.54-29.74,55.39-27.48,30.72,4.14,4.48,50.7,23.93,147,2.34,11.58,7.67,21.28,14.81,30,11.13,13.64,27.72,33.57,52.82,47.82"/><path class="cls-6" d="M.2,651.72c59-24.51,112.31-13.84,126.12-23.77,26.17-18.8,18.8,35.57,77.37,79.7,10.65,8,18.23,17.82,25.58,24.19C269.21,766.47,343,791,379.71,770.43a37.14,37.14,0,0,0,11.48-9.3c13-16.74,31.91-45.32,45.27-71,15.87-30.56,17.23-49.75,32-59,23.42-14.76,44.39,3.36,43.82,4.71,9.6,1.83,16-5.26,20.39-18-6.83-14.12,7.76-47.83,30-84.48,13-21.38,24.8-41.85,35-52.49,14.26-14.89,3-14.14,8.38-24.19,4.54-8.42,14.13-14.38,20.8-19.65,12.82-10.12,32.15-28.86,60.28-17,8.8,3.71,30.4-3.31,54.93-7.3,40.43-6.56,66.34-30.91,109.59-13,5.23,2.17,6.65,4.52,30.86,14.15C903,422,908.63,427.91,915,427a37.17,37.17,0,0,0,22-11.22c12.06-12.45,5.45-18.6,15.59-23.57,5.29-2.58,14.55-5,22.79-.41,15.74,8.71,25.18,38,26.77,65.19a136.5,136.5,0,0,1-.55,21.25c-1.08,11-9.19,19.53-10.34,25.91-4.53,25.07,7.28,43.34,17.18,49.81-.62,1.28,8.24.61,9-3.37.48-2.57-3.78-4.9-3.89-11.83-.06-3.07-.66-5.32.59-6.72,2.7-3,5.64,2.19,10.35.55a7,7,0,0,0,4.09-8.15c-20.51,11.88-68,37.58-83.72,77.9-11.61,29.89-5.37,67.76,19.41,84.49,9.73,6.58,24.11,7.22,40.17,8.82,27.11,2.71,58.83-10.64,75.72-36.06,31.79-47.81,44-98.46,72-134,16-20.38,38.47-41,68.31-63.93,15.2-11.66,39-30.21,56.09-27.57,30.87,4.76,4.22,53.52,24.36,150.13,2.43,11.66,7.76,21.53,14.88,30.49,11.1,14,27.61,34.55,53.11,49.07"/><path class="cls-6" d="M.2,660.63C59.84,635.71,112.07,645.3,125.92,636c26.26-17.66,17.51,36.46,77.54,79.94,10.79,7.81,18.69,17.37,26.31,23.61,41.62,34.08,114.58,57.88,150.78,36.9A37.63,37.63,0,0,0,391.88,767c13-17.11,31.15-46.18,43.88-72,15.39-31.17,16.22-50.38,30.82-59.63,23.15-14.67,44.53,4.25,45.85,5.81,10.35,1.92,17.56-5.3,23-18.3-5.18-14.41,10-47.92,32.76-84.49,13.15-21.19,24.92-41.45,35.09-52.21,13.89-14.71,3.45-14.48,8.84-24.46,4.58-8.5,13.91-14.6,20.48-20,12.73-10.44,31.66-29.66,59.93-18,8.53,3.5,30.06-3.76,54.74-7.87,40-6.66,66.75-29.9,109.61-11.6,5.17,2.21,6.71,4.6,29.9,13.93,19.64,7.91,25.14,12.21,31.37,13.1,10.78,1.54,17.45-6.2,21.4-10,11.78-11.28,5.61-16.95,15.39-21.23,5.11-2.24,14-4.27,21.86.32,15.1,8.82,24,37.28,25.35,63.6a131.45,131.45,0,0,1-.72,20.63c-1.15,10.68-9,18.87-10.24,25.08-4.77,24.11,6,41.76,14.74,48.26-.75,1.29,7.52.75,8-2.94.34-2.36-3.83-4.49-4.12-11-.13-2.86-.81-4.94.29-6.21,2.41-2.77,5,2.26,9.37.83a6.08,6.08,0,0,0,3.46-7.44c-21,12.43-68.95,38.9-84.28,80.31-11.37,30.71-4.51,69.57,21.17,86.9,10.16,6.87,25,7.88,41.45,9.53,27.74,2.8,59.89-10.4,76.83-36,32-48.36,44-99.39,72.08-136,16-20.92,38.51-42.12,68.72-65.39,15.31-11.79,39.43-30.68,56.79-27.67,31,5.39,4,56.35,24.78,153.25,2.52,11.73,7.86,21.76,15,30.94,11.06,14.29,27.48,35.53,53.39,50.33"/><path class="cls-6" d="M.2,669.55C60.53,644.2,111.64,652.73,125.52,644c26.35-16.52,16.22,37.36,77.71,80.18,10.94,7.61,19.15,16.92,27,23,43.3,33.52,115.44,56.64,151.12,35.21a38,38,0,0,0,11.18-9.62c13-17.49,30.39-47,42.5-72.88,14.88-31.77,15.19-51,29.67-60.23,22.88-14.57,44.42,5.69,47.88,6.92,10.63,3.76,19.15-5.33,25.5-18.6-3.53-14.7,12.35-48,35.48-84.49,13.33-21,25-41,35.19-51.95,13.51-14.52,3.94-14.81,9.29-24.73,4.62-8.58,13.71-14.81,20.16-20.3,12.65-10.76,31.17-30.43,59.59-19.09,8.26,3.3,29.72-4.19,54.54-8.42C792,412.3,819.55,390.17,862,408.83c5.11,2.25,6.79,4.67,29,13.71,18.81,7.67,24.18,12,30.3,13,10.36,1.74,16.9-5.32,20.79-8.74,11.49-10.1,5.77-15.29,15.19-18.89,4.93-1.89,13.44-3.56,20.92,1.05,14.47,8.93,22.89,36.53,23.94,62a125,125,0,0,1-.9,20c-1.21,10.31-8.81,18.22-10.12,24.27-5,23.14,4.73,40.16,12.29,46.7-.88,1.31,6.81.88,7.1-2.5.18-2.16-3.9-4.1-4.36-10.15-.2-2.67-1-4.57,0-5.71,2.12-2.53,4.46,2.32,8.39,1.11a5.2,5.2,0,0,0,2.83-6.72c-21.53,13-69.83,40.2-84.83,82.71-11.13,31.53-3.64,71.38,22.92,89.3,10.6,7.16,25.93,8.55,42.75,10.25,28.36,2.88,60.95-10.15,77.92-36,32.17-48.91,44-100.34,72.2-138.09,16-21.45,38.55-43.21,69.12-66.85,15.43-11.93,39.9-31.15,57.5-27.76,31.2,6,3.73,59.17,25.21,156.36,2.61,11.8,8,22,15.05,31.4,11,14.6,27.35,36.5,53.67,51.57"/><path class="cls-6" d="M.2,678.46c61-25.77,111-18.3,124.91-26.38C151.56,636.7,140,690.36,203,732.49c11.09,7.41,19.61,16.47,27.76,22.45,45,32.95,116.31,55.41,151.48,33.52a38.77,38.77,0,0,0,11-9.78c13-17.86,29.62-47.89,41.11-73.79,14.36-32.39,14.18-51.65,28.53-60.83,22.61-14.48,44.62,6.54,49.91,8,11.59,3.23,20.73-5.36,28.06-18.91-1.88-15,14.63-48.11,38.2-84.49C592.56,527.86,604.23,508,614.35,497c13.15-14.34,4.43-15.15,9.75-25,4.66-8.65,13.49-15,19.84-20.62,12.55-11.09,30.65-31.17,59.24-20.13,8,3.08,29.38-4.64,54.35-9,39.23-6.85,67.6-27.88,109.65-8.85,5,2.28,6.85,4.74,28,13.48,18,7.45,23.23,11.81,29.24,13,9.94,1.93,15.85-5.19,20.18-7.5,9.39-10.79,5.94-13.63,15-16.56,4.77-1.54,12.89-2.84,20,1.79,13.84,9.05,21.75,35.78,22.54,60.41a122.16,122.16,0,0,1-1.08,19.38c-1.28,9.94-8.63,17.57-10,23.46-5.23,22.17,3.46,38.57,9.85,45.14-1,1.33,6.09,1,6.15-2.07,0-2-4-3.71-4.59-9.3-.28-2.47-1.11-4.2-.32-5.21,1.82-2.29,3.86,2.38,7.4,1.39,1.63-.45,3.46-2.89,2.2-6-22,13.52-70.72,41.52-85.39,85.12-10.88,32.35-2.77,73.2,24.69,91.71,11,7.45,26.84,9.21,44,11,29,3,62-9.91,79-35.93,32.35-49.45,44-101.27,72.31-140.13,16-22,38.59-44.29,69.53-68.31,15.54-12.06,40.35-31.62,58.2-27.86,31.38,6.62,3.48,62,25.64,159.47,2.7,11.88,8,22.25,15.12,31.86,11,14.92,27.24,37.48,54,52.82"/><path class="cls-6" d="M.2,687.37c61.7-26.19,110.58-19.78,124.51-27.25,26.54-14.24,13.63,39.23,78.06,80.64,11.24,7.23,20.06,16,28.49,21.88,46.67,32.36,117.17,54.17,151.82,31.83A39.22,39.22,0,0,0,394,784.53c13-18.24,28.84-48.75,39.72-74.71,13.83-33,13.17-52.28,27.39-61.43,22.34-14.38,44.79,7.4,51.94,9.13,12.43,3,22.32-5.39,30.61-19.21-.23-15.28,16.92-48.21,40.92-84.49,13.66-20.65,25.3-40.25,35.38-51.41,12.78-14.16,4.92-15.49,10.2-25.27,4.71-8.74,13.28-15.23,19.52-20.95,12.46-11.41,30.13-31.87,58.89-21.18,7.73,2.87,29.05-5.07,54.17-9.55,38.82-6.94,68-26.87,109.67-7.47,5,2.32,6.91,4.81,27,13.26,17.16,7.21,22.27,11.61,28.16,12.91,9.53,2.1,15.33-4.37,19.58-6.27,9.11-9.72,6.11-12,14.78-14.22,4.6-1.19,12.34-2.13,19.05,2.53,13.21,9.16,20.61,35,21.13,58.81a117.23,117.23,0,0,1-1.25,18.76c-1.34,9.57-8.44,16.91-9.91,22.64-5.46,21.21,2.18,37,7.4,43.57-1.13,1.35,5.37,1.15,5.2-1.62-.11-1.77-4-3.32-4.82-8.47-.35-2.27-1.27-3.82-.62-4.69,1.52-2.06,3.27,2.42,6.42,1.66,1.37-.33,2.92-2.48,1.57-5.29-22.55,14.06-71.61,42.82-86,87.52-10.64,33.17-1.9,75,26.44,94.12,11.47,7.74,27.75,9.86,45.32,11.68,29.63,3.05,63.08-9.67,80.13-35.88,32.54-50,44-102.21,72.43-142.18,16-22.53,38.63-45.37,69.94-69.77,15.65-12.19,40.81-32.1,58.9-27.95,31.56,7.24,3.23,64.81,26.06,162.58,2.79,11.95,8.14,22.48,15.21,32.31,11,15.25,27.11,38.46,54.25,54.08"/><path class="cls-6" d="M.2,696.29C62.59,669.67,110.35,675,124.3,668.16c26.64-13.09,12.35,40.19,78.24,80.88,11.38,7,20.52,15.58,29.22,21.3,48.34,31.77,118,52.93,152.16,30.14a39.86,39.86,0,0,0,10.72-10.1c13-18.61,28.05-49.6,38.34-75.62,13.28-33.6,12.15-52.92,26.24-62,22.07-14.29,44.95,8.25,54,10.23,13.23,2.9,23.9-5.43,33.17-19.51,1.41-15.57,19.2-48.31,43.64-84.5,13.82-20.46,25.42-39.84,35.47-51.14,12.42-14,5.41-15.82,10.66-25.54,4.74-8.81,13.07-15.44,19.2-21.27,12.36-11.74,29.58-32.52,58.54-22.22,7.46,2.65,28.71-5.51,54-10.12,38.43-7,68.44-25.85,109.69-6.1,4.92,2.36,7,4.89,26.07,13.05,16.33,7,21.32,11.39,27.09,12.84,9.11,2.27,14.8-3.54,19-5,8.83-8.65,6.29-10.3,14.58-11.88,4.43-.85,11.78-1.41,18.11,3.26,12.58,9.29,19.47,34.26,19.72,57.22a112.06,112.06,0,0,1-1.42,18.13c-1.41,9.2-8.26,16.26-9.81,21.82-5.66,20.25.91,35.39,5,42-1.26,1.37,4.66,1.27,4.25-1.18-.26-1.58-4.08-2.94-5-7.63-.43-2.07-1.42-3.45-.93-4.19,1.22-1.82,2.68,2.46,5.44,2,1.12-.21,2.39-2.09.94-4.59C977.39,573,928,602.49,914,648.27c-10.4,34-1,76.83,28.2,96.54,11.9,8,28.65,10.52,46.61,12.39,30.25,3.14,64.13-9.42,81.23-35.83,32.73-50.55,44-103.16,72.54-144.23,16.06-23.08,38.67-46.46,70.34-71.22,15.77-12.34,41.29-32.59,59.61-28.06,31.75,7.86,3,67.64,26.49,165.69,2.88,12,8.23,22.73,15.29,32.77,10.93,15.57,27,39.45,54.53,55.33"/><path class="cls-6" d="M.2,705.2c63.07-27,109.72-22.75,123.7-29,26.73-11.94,11,41.17,78.41,81.12,11.53,6.84,21,15.12,29.95,20.72,50,31.16,118.89,51.69,152.5,28.45a40.35,40.35,0,0,0,10.56-10.26c13-19,27.26-50.44,37-76.54,12.71-34.21,11.14-53.55,25.1-62.63,21.8-14.19,45.1,9.11,56,11.34,14,2.86,25.47-5.46,35.71-19.82,3.07-15.85,21.48-48.41,46.36-84.49,14-20.29,25.56-39.44,35.56-50.87,12.06-13.78,5.91-16.16,11.12-25.82,4.79-8.89,12.85-15.65,18.89-21.59,12.25-12.07,29-33.12,58.19-23.27,7.2,2.43,28.37-5.93,53.78-10.68,38-7.11,68.86-24.84,109.71-4.72,4.86,2.4,7,5,25.1,12.82,15.51,6.75,20.37,11.19,26,12.78,8.69,2.44,14.27-2.71,18.36-3.79,8.56-7.58,6.47-8.64,14.38-9.55,4.26-.49,11.22-.69,17.17,4,12,9.42,18.32,33.51,18.31,55.62a106.94,106.94,0,0,1-1.59,17.51c-1.48,8.83-8.07,15.61-9.71,21A56.72,56.72,0,0,0,993.28,578c-1.39,1.39,3.93,1.38,3.3-.75-.41-1.39-4.14-2.55-5.28-6.79-.5-1.87-1.58-3.07-1.23-3.68.91-1.59,2.12,1.79,4.46,2.23.85.16,1.86-1.69.31-3.88-23.57,15.16-73.39,45.45-87.06,92.33-10.15,34.82-.17,78.64,30,98.95,12.33,8.32,29.47,12.38,47.9,13.1,31,1.22,65.2-9.18,82.34-35.78,32.91-51.1,44-104.11,72.65-146.27,16.08-23.64,38.71-47.55,70.75-72.69,15.88-12.47,41.76-33.07,60.31-28.15,32,8.46,2.75,70.46,26.92,168.8A101,101,0,0,0,1314,688.65c10.9,15.88,26.87,40.42,54.82,56.57"/><path class="cls-6" d="M.2,714.11C64,686.66,109.49,689.88,123.49,684.24c26.83-10.79,9.76,42.17,78.59,81.36,11.68,6.65,21.42,14.67,30.67,20.14,51.68,30.55,119.76,50.45,152.85,26.76A40.91,40.91,0,0,0,396,802.08c13-19.37,26.46-51.29,35.57-77.45,12.14-34.82,10.13-54.19,24-63.23,21.53-14.09,45.25,10,58,12.44,14.77,2.86,27.06-5.49,38.27-20.12,4.71-16.14,23.76-48.52,49.08-84.5,14.14-20.1,25.69-39,35.65-50.6,11.71-13.59,6.41-16.5,11.58-26.08,4.83-9,12.63-15.87,18.56-21.92,12.15-12.4,28.45-33.66,57.85-24.31,6.93,2.2,28-6.37,53.59-11.25,37.63-7.19,69.28-23.84,109.73-3.34,4.79,2.43,7.12,5,24.14,12.6,14.68,6.52,19.41,11,25,12.71,8.28,2.61,13.74-1.89,17.75-2.54,8.28-6.52,6.68-7.83,14.17-7.22,4.1.34,10.67,0,16.24,4.73,11.31,9.55,17.18,32.76,16.9,54a100,100,0,0,1-1.77,16.89c-1.53,8.46-7.86,15-9.59,20.19-6.06,18.31-1.65,32.2.06,38.9-1.51,1.4,3.21,1.49,2.37-.31-.57-1.21-4.22-2.18-5.52-6-.58-1.69-1.74-2.7-1.53-3.18.57-1.35,1.56,2.89,3.47,2.51.61.17,1.33-1.28-.32-3.16-24.08,15.7-74.27,46.75-87.61,94.73-9.91,35.63.69,80.46,31.71,101.36,12.76,8.61,30.37,13,49.18,13.81,31.65,1.46,66.26-8.93,83.44-35.73,33.1-51.65,44-105.06,72.77-148.32,16.1-24.19,38.75-48.63,71.16-74.15,16-12.61,42.23-33.56,61-28.25,32.16,9.08,2.51,73.28,27.34,171.92A107.25,107.25,0,0,0,1313.67,701c10.87,16.21,26.74,41.4,55.1,57.83"/><path class="cls-6" d="M.2,723c64.45-27.88,108.86-25.71,122.89-30.74,26.92-9.65,8.46,43.18,78.76,81.59,11.84,6.47,21.88,14.21,31.4,19.56,53.33,29.93,120.62,49.21,153.19,25.08a42.06,42.06,0,0,0,10.26-10.59c13-19.75,25.64-52.12,34.19-78.37,11.53-35.42,9.13-54.79,22.81-63.83,21.29-14,45.39,10.82,60.07,13.55,15.54,2.88,31.14-3.79,40.83-20.42,8.86-15.23,26-48.63,51.79-84.5,14.31-19.93,25.83-38.62,35.75-50.34,11.35-13.39,6.9-16.83,12-26.35,4.87-9.05,12.42-16.08,18.25-22.24,12-12.73,27.86-34.13,57.49-25.36,6.67,2,27.7-6.79,53.4-11.81,37.24-7.27,69.71-22.83,109.75-2,4.74,2.46,7.19,5.11,23.19,12.37,13.86,6.3,18.46,10.75,23.88,12.65,7.88,2.76,13.21-1.06,17.15-1.3,8-5.45,6.94-6.12,14-4.88,3.89.69,10.11.76,15.3,5.47,10.67,9.68,16,32,15.5,52.43a97.06,97.06,0,0,1-1.95,16.26c-1.6,8.09-7.67,14.31-9.49,19.37-6.24,17.36-2.92,30.61-2.38,37.34-1.63,1.43,2.46,1.6,1.42.14-.74-1-4.29-1.82-5.74-5.12-.66-1.49-1.83-2.29-1.84-2.67.45-1,1,3,2.49,2.79.35.3.79-.88-1-2.45C959,595,908.44,626.76,895.43,675.84c-9.66,36.45,1.57,82.27,33.48,103.77,13.19,8.89,31.27,13.52,50.47,14.52,32.27,1.69,67.32-8.68,84.54-35.69,33.28-52.19,44-106,72.89-150.36,16.11-24.74,38.79-49.71,71.55-75.61,16.12-12.74,42.71-34,61.72-28.34,32.37,9.69,2.27,76.09,27.77,175a113.84,113.84,0,0,0,15.52,34.14c10.84,16.53,26.63,42.38,55.39,59.08"/><path class="cls-6" d="M.2,731.94c65.13-28.3,108.43-27.19,122.49-31.61,27-8.5,7.17,44.21,78.93,81.83,12,6.28,22.33,13.75,32.13,19,55,29.3,121.47,48,153.54,23.39a43.1,43.1,0,0,0,10.1-10.76c12.95-20.12,24.82-52.95,32.8-79.27,10.92-36,8.12-55.43,21.67-64.44,21-13.85,45.53,11.69,62.1,14.66,16.3,2.91,32.37-3.94,43.38-20.73,10.17-15.5,28.31-48.73,54.51-84.49,14.48-19.76,26-38.22,35.85-50.07,11-13.21,7.39-17.17,12.49-26.63,4.91-9.12,12.19-16.28,17.92-22.56,11.93-13.06,27.27-34.52,57.15-26.4,6.41,1.74,27.37-7.22,53.21-12.38,36.84-7.35,70.14-21.82,109.77-.58,4.67,2.5,7.25,5.18,22.22,12.15,13,6.06,17.52,10.52,22.82,12.58,7.47,2.91,12.68-.23,16.54-.06,7.73-4.38,7-3.6,13.77-2.55,3.78.59,9.55,1.49,14.36,6.21C998,479,1002.83,500.46,1002,520a91.89,91.89,0,0,1-2.12,15.64c-1.66,7.72-7.47,13.66-9.39,18.56-6.41,16.4-4.19,29-4.82,35.78-1.76,1.45,1.7,1.71.47.57-.92-.85-4.37-1.45-6-4.27a8.63,8.63,0,0,0-2.15-2.17c.17-.77.39,3.06,1.51,3.07.09.44.26-.48-1.58-1.73-25.1,16.79-76,49.36-88.73,99.54-9.42,37.27,2.43,84.08,35.23,106.18,13.63,9.18,32.17,14.09,51.76,15.23,32.9,1.93,68.38-8.44,85.64-35.64,33.47-52.74,44-107,73-152.41,16.13-25.3,38.83-50.8,72-77.07,16.23-12.87,43.19-34.53,62.42-28.44,32.59,10.31,2,78.92,28.2,178.14a120.79,120.79,0,0,0,15.6,34.59c10.81,16.85,26.5,43.36,55.67,60.33"/><path class="cls-6" d="M.2,740.85c65.82-28.72,108-28.66,122.08-32.48,27.11-7.34,5.89,45.26,79.11,82.07,12.14,6.1,22.77,13.29,32.86,18.39,56.62,28.68,122.33,46.74,153.88,21.71a43.83,43.83,0,0,0,9.95-10.92c12.92-20.5,24-53.77,31.41-80.19,10.3-36.62,7.11-56.06,20.53-65,20.75-13.76,45.67,12.55,64.13,15.76,17.06,3,33.63-4.1,45.94-21,11.5-15.82,30.58-48.84,57.23-84.5,14.63-19.58,26.12-37.8,35.94-49.8,10.64-13,7.88-17.5,12.94-26.89,5-9.21,12-16.5,17.61-22.89,11.8-13.39,26.65-34.83,56.8-27.45,6.14,1.51,27-7.64,53-12.94,36.45-7.43,70.57-20.82,109.8.79,4.61,2.54,7.32,5.27,21.26,11.94,12.21,5.83,16.57,10.28,21.75,12.51,7.07,3.05,12.15.59,15.93,1.18,7.45-3.31,7.22-1.89,13.57-.21,3.62,1,9,2.22,13.42,6.94,9.38,10,13.74,30.49,12.68,49.24a87.33,87.33,0,0,1-2.29,15c-1.72,7.35-7.27,13-9.28,17.74-6.57,15.45-5.47,27.42-7.27,34.22-1.89,1.46.92,1.84-.48,1-1.1-.66-4.46-1.09-6.2-3.44a5.21,5.21,0,0,0-2.45-1.66c-.12-.53-.2,3.14.53,3.35-.17.57-.28-.07-2.22-1-25.61,17.34-76.93,50.67-89.28,102-9.17,38.09,3.3,85.89,37,108.59,14.06,9.47,33.07,14.66,53,16,33.52,2.15,69.45-8.2,86.75-35.6,33.65-53.29,44-107.91,73.12-154.46,16.15-25.85,38.87-51.88,72.37-78.53,16.34-13,43.67-35,63.12-28.54,32.82,10.93,1.79,81.74,28.62,181.25a129,129,0,0,0,15.69,35.06c10.77,17.17,26.38,44.33,56,61.58"/><path class="cls-6" d="M.2,749.77c66.51-29.15,107.56-30.15,121.68-33.36,27.2-6.18,4.6,46.33,79.27,82.31,12.31,5.92,23.23,12.83,33.6,17.81,58.26,28,123.18,45.5,154.22,20a44.81,44.81,0,0,0,9.8-11.08c12.89-20.88,23.15-54.59,30-81.1,9.65-37.21,6.09-56.7,19.38-65.64,20.48-13.66,45.81,13.42,66.16,16.87,17.82,3,34.92-4.28,48.49-21.33,12.87-16.17,32.86-49,59.95-84.5,14.8-19.41,26.28-37.38,36-49.54,10.3-12.81,8.37-17.84,13.4-27.16S684,496.36,689.5,489.86c11.69-13.72,26-35,56.46-28.49,5.88,1.26,26.69-8.07,52.82-13.51,36.05-7.5,71-19.81,109.81,2.17,4.55,2.58,7.39,5.35,20.31,11.71,11.38,5.61,15.63,10.05,20.68,12.45,6.67,3.19,11.62,1.42,15.32,2.42,7.18-2.24,7.4-.18,13.36,2.13,3.46,1.34,8.42,2.95,12.49,7.67,8.72,10.12,12.58,29.74,11.27,47.65a82.43,82.43,0,0,1-2.46,14.39c-1.78,7-7.06,12.36-9.18,16.93-6.72,14.5-6.74,25.83-9.71,32.66-2,1.48.14,2-1.42,1.44-1.3-.45-4.59-.72-6.44-2.59a4.11,4.11,0,0,0-2.75-1.15c-.41-.29-.8,3.21-.46,3.63-.43.7-.81.32-2.85-.31-26.11,17.88-77.81,52-89.83,104.35-8.93,38.9,4.16,87.71,38.74,111,14.5,9.76,34,15.23,54.34,16.66,34.14,2.39,70.5-8,87.84-35.55,33.84-53.84,44.06-108.87,73.24-156.51,16.18-26.42,38.91-53,72.78-80,16.45-13.14,44.15-35.5,63.82-28.63,33,11.54,1.56,84.55,29,184.36a137.52,137.52,0,0,0,15.76,35.51c10.75,17.49,26.26,45.31,56.25,62.83"/><path class="cls-6" d="M.2,758.68c67.19-29.57,107.13-31.62,121.27-34.22,27.3-5,3.33,47.4,79.45,82.53,12.46,5.76,23.68,12.37,34.32,17.24,59.9,27.4,124,44.26,154.57,18.33a45.85,45.85,0,0,0,9.65-11.24c12.86-21.26,22.31-55.4,28.64-82,9-37.79,5.08-57.33,18.24-66.23,20.21-13.58,45.94,14.28,68.2,18,18.56,3.08,36.24-4.46,51-21.63,14.26-16.54,35.13-49.07,62.67-84.5,15-19.24,26.43-37,36.13-49.26,10-12.62,8.86-18.18,13.85-27.44s11.53-16.92,17-23.53c11.56-14.05,25.42-35.1,56.1-29.54,5.62,1,26.37-8.48,52.64-14.07,35.66-7.58,71.42-18.81,109.83,3.55,4.48,2.61,7.45,5.42,19.34,11.49,10.56,5.38,14.7,9.8,19.62,12.39,6.28,3.31,11.09,2.24,14.71,3.65,6.9-1.16,7.57,1.54,13.16,4.47,3.29,1.72,7.85,3.68,11.55,8.4,8.06,10.28,11.43,29,9.86,46a76.63,76.63,0,0,1-2.64,13.77c-1.83,6.62-6.84,11.72-9.06,16.11-6.86,13.57-8,24.24-12.16,31.1-2.14,1.51-.62,2.16-2.37,1.89-1.48-.23-4.73-.35-6.67-1.76a4.69,4.69,0,0,0-3.06-.64c-.69.05-1.38,3.29-1.43,3.91-.69.83-1.35.72-3.48.4-26.63,18.43-78.7,53.28-90.39,106.75-8.69,39.73,5,89.53,40.5,113.41,14.92,10.06,34.87,15.81,55.62,17.38,34.76,2.62,71.56-7.71,88.95-35.51,34-54.38,44.08-109.83,73.35-158.55,16.21-27,39-54,73.18-81.45,16.57-13.28,44.65-36,64.53-28.73,33.29,12.16,1.32,87.37,29.48,187.47a146.35,146.35,0,0,0,15.84,36c10.71,17.82,26.13,46.29,56.53,64.08"/><path class="cls-6" d="M.2,767.59c67.88-30,106.7-33.09,120.87-35.09,27.39-3.87,2.05,48.49,79.62,82.77,12.62,5.58,24.12,11.91,35.05,16.66,61.52,26.75,124.89,43,154.91,16.64a47.16,47.16,0,0,0,9.5-11.4C413,815.53,421.61,781,427.41,754.24c8.31-38.38,4.06-58,17.09-66.84,19.94-13.48,46.08,15.15,70.23,19.07,19.32,3.15,37.59-4.65,53.59-21.93,15.69-16.93,37.4-49.19,65.39-84.5,15.12-19.07,26.6-36.54,36.23-49s9.36-18.51,14.31-27.71c5.08-9.43,11.3-17.12,16.64-23.85,11.44-14.38,24.82-35,55.76-30.58,5.35.77,26-8.9,52.44-14.64,35.27-7.65,71.86-17.81,109.86,4.93,4.42,2.64,7.51,5.5,18.38,11.27,9.73,5.15,13.77,9.54,18.54,12.32,5.9,3.43,10.56,3.07,14.11,4.89,6.63-.09,7.74,3.27,13,6.8,3.11,2.11,7.27,4.42,10.61,9.15,7.38,10.43,10.28,28.23,8.46,44.45a72.73,72.73,0,0,1-2.82,13.14c-1.89,6.25-6.63,11.08-9,15.3-7,12.63-8.25,23.59-14.6,29.54-2,1.87-1.37,2.33-3.32,2.33-1.65,0-4.88,0-6.9-.92a5,5,0,0,0-3.36-.14c-1,.26-1.87,3.44-2.42,4.19-.81,1.09-1.88,1.13-4.11,1.11-27.13,19-79.59,54.59-90.95,109.16-8.43,40.54,5.9,91.34,42.26,115.82C922.19,848,942.6,854,963.75,855.69c35.38,2.86,72.62-7.46,90-35.46,34.19-54.93,44.1-110.79,73.46-160.6,16.23-27.54,39-55.12,73.59-82.91,16.68-13.41,45.14-36.48,65.23-28.82,33.53,12.77,1.09,90.18,29.9,190.58a156.71,156.71,0,0,0,15.93,36.42c10.68,18.14,26,47.27,56.81,65.34"/><path class="cls-6" d="M.2,776.51c68.57-30.41,106.27-34.57,120.47-36,27.48-2.7.78,49.6,79.79,83C213.24,829,225,835,236.24,839.63c63.14,26.1,125.74,41.77,155.26,15A48.61,48.61,0,0,0,400.84,843c12.78-22,20.61-57,25.87-83.85,7.63-38.95,3.05-58.6,16-67.43,19.67-13.39,46.22,16,72.26,20.17,20.07,3.21,39-4.84,56.15-22.23s39.67-49.32,68.11-84.51c15.27-18.9,26.76-36.11,36.32-48.72,9.27-12.24,9.85-18.85,14.76-28,5.12-9.52,11.08-17.34,16.33-24.18,11.3-14.71,24.33-27.54,55.41-31.63,5.06-.66,25.7-9.31,52.25-15.2,34.88-7.72,72.29-16.81,109.87,6.3,4.37,2.69,7.58,5.59,17.43,11.05,8.89,4.93,12.85,9.29,17.47,12.26,5.53,3.55,10,3.89,13.5,6.13,6.35,1,7.89,5,12.76,9.14,2.92,2.49,6.69,5.15,9.68,9.88,6.69,10.6,9.11,27.47,7,42.86a69.39,69.39,0,0,1-3,12.52c-2,5.88-6.41,10.44-8.86,14.48-7.1,11.72-9.76,21.9-17,28-2.18,1.82-2.1,2.49-4.26,2.76a21.93,21.93,0,0,1-7.13-.07,6.23,6.23,0,0,0-3.66.36c-1.26.49-2.5,3.52-3.41,4.47-1.13,1.18-2.4,1.53-4.74,1.83-27.64,19.52-80.47,55.88-91.5,111.56-8.19,41.36,6.77,93.15,44,118.23,15.79,10.64,36.67,17,58.2,18.8,36,3.09,73.63-7.25,91.15-35.41,34.29-55.54,44.14-111.75,73.58-162.65,16.27-28.11,39-56.2,74-84.37,16.79-13.54,45.63-37,65.93-28.92,33.78,13.4.86,93,30.33,193.7a168.8,168.8,0,0,0,16,36.88c10.65,18.45,25.89,48.24,57.1,66.58"/><path class="cls-6" d="M.2,785.42c69.25-30.83,105.83-36,120.06-36.84,27.57-1.54-.47,50.72,80,83.25,12.94,5.23,25,11,36.51,15.5,64.75,25.45,126.59,40.53,155.6,13.26a49.91,49.91,0,0,0,9.19-11.72c12.74-22.4,19.75-57.79,24.48-84.76,6.94-39.52,2-59.24,14.81-68,19.4-13.29,46.35,16.89,74.29,21.28,20.83,3.28,40.37-5,58.71-22.54,18.59-17.75,41.93-49.44,70.82-84.5,15.44-18.73,26.94-35.68,36.42-48.46,8.93-12,10.34-19.19,15.22-28.25a197.36,197.36,0,0,1,16-24.5c11.18-15,24-27.86,55.07-32.67,4.75-.74,25.37-9.73,52-15.76,34.49-7.8,72.73-15.82,109.9,7.67,4.3,2.72,7.64,5.67,16.47,10.83,8.06,4.71,11.94,9,16.4,12.19,5.16,3.67,9.1,5.33,12.89,7.37,5.64,3,8,6.71,12.56,11.48,2.73,2.87,6.11,5.88,8.74,10.61,6,10.76,7.95,26.72,5.63,41.26a63.9,63.9,0,0,1-3.16,11.9c-2,5.51-6.19,9.81-8.75,13.66-7.21,10.82-11.24,20.19-19.5,26.43-2.36,1.78-2.84,2.65-5.21,3.2A28.58,28.58,0,0,1,958,618a8.55,8.55,0,0,0-4,.87c-1.54.72-3.1,3.59-4.38,4.75a11.37,11.37,0,0,1-5.37,2.54c-28.16,20.07-81.36,57.19-92.06,114-8,42.17,7.63,95,45.78,120.64,16.22,10.92,37.56,17.53,59.48,19.51,36.62,3.32,74.7-7,92.26-35.36,34.48-56.08,44.17-112.72,73.69-164.7,16.3-28.68,39.14-57.22,74.4-85.83,16.94-13.65,46.14-37.46,66.64-29,34,14,.63,95.8,30.76,196.8a180.54,180.54,0,0,0,16.08,37.34c10.62,18.78,25.77,49.22,57.38,67.83"/><path class="cls-6" d="M.2,794.33c69.94-31.25,105.4-37.51,119.66-37.71,27.65-.37-1.74,51.86,80.14,83.49,13.11,5.06,25.44,10.52,37.23,14.92,66.36,24.79,127.45,39.29,156,11.57a51.3,51.3,0,0,0,9-11.88c12.69-22.78,18.88-58.57,23.1-85.68,6.23-40.08,1-59.88,13.66-68.63,19.13-13.2,46.49,17.75,76.32,22.38,21.58,3.36,41.8-5.22,61.26-22.84,20.08-18.18,44.2-49.57,73.55-84.51,15.59-18.56,27.12-35.24,36.51-48.19,8.6-11.84,10.83-19.52,15.67-28.52A225.61,225.61,0,0,1,718,513.91c11-15.37,23.7-28.11,54.72-33.72,4.45-.8,25-10.13,51.86-16.32,34.1-7.87,73.16-14.82,109.92,9.05,4.24,2.75,7.7,5.76,15.5,10.6,7.24,4.5,11,8.75,15.34,12.13,4.81,3.79,8.61,6,12.28,8.62,5.36,3.82,8.15,8.42,12.35,13.8,2.54,3.26,5.52,6.63,7.81,11.35,5.27,10.93,6.78,26,4.22,39.67a59.43,59.43,0,0,1-3.33,11.27c-2.06,5.15-6,9.19-8.65,12.85-7.3,9.93-12.67,18.46-21.94,24.86-2.53,1.75-3.57,2.82-6.15,3.65a42.28,42.28,0,0,1-7.59,1.6,12,12,0,0,0-4.28,1.37c-1.84.95-3.71,3.66-5.37,5s-3.62,2-6,3.26c-31.2,16.5-82.15,58.5-92.61,116.37-7.64,43,8.49,96.78,47.53,123,16.66,11.21,38.46,18.1,60.78,20.23,37.24,3.55,75.76-6.76,93.35-35.33,34.68-56.62,44.21-113.68,73.82-166.74,16.32-29.25,39.16-58.31,74.8-87.29,17.05-13.78,46.63-37.95,67.34-29.11,34.3,14.64.4,98.61,31.18,199.92A196,196,0,0,0,1311,811.87c10.63,19.08,25.65,50.2,57.68,69.09"/><path class="cls-6" d="M.21,803.25c70.62-31.68,105-39,119.24-38.58,27.74.79-3,53,80.32,83.72,13.27,4.89,25.88,10.05,38,14.34,68,24.14,128.29,38,156.29,9.89a53.68,53.68,0,0,0,8.89-12c12.64-23.17,18-59.34,21.71-86.59,5.51-40.63,0-60.52,12.52-69.24,18.86-13.1,46.64,18.57,78.35,23.49,22.34,3.38,43.24-5.4,63.82-23.14,21.57-18.61,46.46-49.7,76.26-84.51,15.75-18.4,27.31-34.81,36.61-47.92,8.27-11.65,11.32-19.86,16.13-28.79a259.53,259.53,0,0,1,15.36-25.15C734.57,503,747.1,490.44,778,484c4.16-.87,24.72-10.54,51.68-16.89,33.71-7.94,73.6-13.82,109.93,10.43,4.18,2.79,7.77,5.85,14.55,10.38,6.4,4.28,10.16,8.47,14.26,12.06,4.48,3.91,8.16,6.67,11.68,9.86,5.14,4.64,8.28,10.13,12.15,16.14,2.34,3.63,4.93,7.35,6.87,12.09,4.55,11.08,5.62,25.2,2.81,38.07a55.43,55.43,0,0,1-3.5,10.65c-2.12,4.78-5.72,8.57-8.55,12-7.4,9.07-14.08,16.72-24.38,23.3-2.7,1.72-4.29,3-7.1,4.08a65.17,65.17,0,0,1-7.82,2.44,18.88,18.88,0,0,0-4.58,1.88c-2.13,1.19-4.31,3.73-6.35,5.32a64.17,64.17,0,0,1-6.63,4c-31,18.32-83.06,59.8-93.17,118.78-7.41,43.81,9.36,98.59,49.29,125.46,17.08,11.5,39.36,18.67,62.06,20.94,37.86,3.78,76.83-6.51,94.46-35.28,34.87-57.16,44.24-114.65,73.93-168.79,16.35-29.83,39.19-59.41,75.21-88.75,17.15-13.92,47.13-38.44,68-29.2,34.56,15.25.35,101.36,31.61,203a213,213,0,0,0,16.24,38.25c10.59,19.41,25.52,51.18,58,70.34"/><path class="cls-6" d="M.21,812.16c71.3-32.1,104.51-40.43,118.84-39.45,27.82,2-4.23,54.15,80.49,84,13.44,4.73,26.32,9.59,38.69,13.76,69.56,23.48,129.1,36.76,156.63,8.2a55.65,55.65,0,0,0,8.74-12.21c12.59-23.55,17.14-60.1,20.32-87.51,4.78-41.17-1-61.15,11.38-69.83,18.59-13,46.77,19.45,80.39,24.59,23.08,3.48,44.68-5.57,66.36-23.45,23.09-19,48.73-49.83,79-84.5a521.79,521.79,0,0,0,36.7-47.66c7.94-11.46,11.81-20.19,16.58-29.06,5.29-9.83,10.15-18.17,15-25.47,10.76-16,23.2-28.35,54-35.81,3.87-.93,24.39-10.94,51.48-17.45,33.32-8,74.09-12.89,110,11.8,4.12,2.82,7.82,5.95,13.59,10.17,5.56,4.06,9.28,8.19,13.19,12,4.16,4,7.72,7.37,11.07,11.1,5,5.52,8.4,11.83,12,18.48a84.1,84.1,0,0,1,5.93,12.82A65.86,65.86,0,0,1,1002,583.1a51.11,51.11,0,0,1-3.69,10c-2.16,4.42-5.48,8-8.43,11.21A111.75,111.75,0,0,1,963,626.09a79.33,79.33,0,0,1-8,4.52c-2.43,1.11-5.45,2.3-8.05,3.28a31.91,31.91,0,0,0-4.88,2.39c-2.42,1.42-4.91,3.79-7.34,5.59-2.23,1.65-4.63,3-7.26,4.67-30.88,20-84,61.11-93.73,121.19-7.17,44.62,10.23,100.4,51,127.87,17.52,11.79,40.26,19.24,63.35,21.65,38.48,4,77.91-6.26,95.56-35.23,35.08-57.7,44.28-115.63,74-170.84,16.39-30.4,39.23-60.5,75.61-90.21,17.27-14.06,47.64-38.92,68.75-29.3,34.83,15.88.06,104.19,32,206.14a229.94,229.94,0,0,0,16.33,38.71c10.55,19.73,25.4,52.15,58.24,71.58"/><path class="cls-6" d="M.21,821.07c72-32.52,104.08-41.91,118.43-40.32,27.91,3.15-5.46,55.31,80.67,84.2,13.61,4.56,26.76,9.12,39.42,13.18,71.15,22.82,130,35.54,157,6.51a57,57,0,0,0,8.59-12.38c12.53-23.92,16.26-60.84,18.94-88.41,4-41.71-2-61.79,10.23-70.44,18.32-12.91,46.9,20.35,82.42,25.7,23.84,3.57,46.15-5.74,68.92-23.75,24.61-19.46,50.93-50,81.7-84.51a452.42,452.42,0,0,0,36.8-47.38c7.61-11.27,12.3-20.54,17-29.34,5.33-9.9,9.92-18.37,14.72-25.78,10.62-16.37,23-28.32,53.68-36.86,3.58-1,24.06-11.35,51.29-18,32.93-8.07,74.5-11.86,110,13.18,4.07,2.86,7.88,6.05,12.63,9.94a116.43,116.43,0,0,1,12.13,11.93,159,159,0,0,1,10.46,12.34A106,106,0,0,1,997,541.67a92.12,92.12,0,0,1,5,13.56,65.35,65.35,0,0,1,0,34.88,47.09,47.09,0,0,1-3.86,9.4,44.25,44.25,0,0,1-8.33,10.4c-7.59,7.42-16.85,13.25-29.27,20.18-3,1.68-5.74,3.29-9,5-2.58,1.33-5.51,2.75-8.28,4.12-1.72.86-3.47,1.84-5.19,2.9-2.71,1.66-5.5,3.87-8.31,5.87-2.51,1.78-5.13,3.46-7.9,5.39-30.77,21.44-84.87,62.4-94.28,123.58-6.95,45.44,11.1,102.22,52.81,130.29,17.95,12.08,41.14,19.85,64.64,22.36,39.08,4.32,79-6,96.66-35.18,35.27-58.24,44.31-116.6,74.16-172.89,16.43-31,39.26-61.59,76-91.67,17.38-14.2,48.15-39.41,69.45-29.39,35.11,16.5-.23,107,32.46,209.25a248.13,248.13,0,0,0,16.4,39.16c10.52,20.06,25.28,53.14,58.53,72.84"/><path class="cls-6" d="M.21,830c214-97,66.33.92,198.87,43.23,91.2,29.12,166.26,52.17,197.47,17.43,19.75-22,23.39-68.73,26-101.87,3.3-42.24-3-62.42,9.09-71,18.05-12.83,47,21.24,84.45,26.8C567.61,752.21,612.36,701.78,672,636c77.84-85.93,51.24-118,122.12-140.74,7.25-2.33,96.53-50.76,161.09-4,32.28,23.37,58.69,70.54,46.77,105.89-9.72,28.82-37.22,27-85.74,63-30.7,22.8-85.79,63.7-94.84,126-6.72,46.25,12,104,54.56,132.7,49,32.94,135.31,35,163.7-12.07,55-91.11,46.08-182.27,150.7-268.06,17.48-14.34,48.65-39.9,70.15-29.49,39.91,19.32-10.85,134.76,49.37,252,10.47,20.39,25.15,54.12,58.81,74.09"/></g></g></svg>