<svg xmlns="http://www.w3.org/2000/svg" viewBox="0 0 554.48 131.49"><defs><style>.cls-1{fill:#fff;}.cls-2{fill:#bc264a;}.cls-3{fill:#2575a9;}</style></defs><g id="Layer_2" data-name="Layer 2"><g id="Layer_1-2" data-name="Layer 1"><path class="cls-1" d="M47.79,19.28l-26.89,0,.3,26.22,23.51,0V56.22l-23.51,0-.3,14.29,26.89,0v12.4H0v-76H47.79Z"/><path class="cls-1" d="M76.94,66.75,66.65,82.91H51.36L69.81,56.79,51.16,30.86h16.1L78.78,46.93,89.17,30.86h15.29L85.91,56.79l18.75,26.12H88.56Z"/><path class="cls-1" d="M140,29c14.47,0,25.78,10.42,25.78,26.68S154.43,82.68,140,82.68c-8.87,0-15.19-4-18.65-8.26v32.22H107V29.79h14.27v7.52C124.67,32.89,131.19,29,140,29Zm-6,12.86c-5.93,0-11.55,4.92-11.55,13.84S128,69.49,133.93,69.49s11.62-5.09,11.62-14S139.93,41.81,133.93,41.81Z"/><path class="cls-1" d="M167.55,13.39h14.27V82.91H167.55Z"/><path class="cls-2" d="M246.42,66.79H217.91l-5.43,15.69H190.85L220.47,0H239.7l29.62,82.48H251.85Zm-14.2-41.1-9.65,27.9,19.37,0Z"/><path class="cls-2" d="M274,.12h16.52V82.48H274Z"/><path class="cls-1" d="M335.21,53.92c0-4.63,0-12.82-8.16-12.82-7.75,0-12.75,4.49-12.75,12.82V82.56H300V30.72H314.3v6.45c3.67-4.39,9.8-7.2,17-7.2,13.16,0,22.54,7.86,22.54,22.18V82.56H335.21Z"/><path class="cls-1" d="M382.08,29.87c9.07,0,15.3,3.93,18.66,8.24V30.72h14.39V82.56H400.74V75C397.38,79.47,391,83.4,382,83.4c-14.28,0-25.7-10.76-25.7-26.95S367.69,29.87,382.08,29.87Zm6.25,12.81c-5.79,0-11.27,4.74-11.27,13.62s5.48,14,11.27,14c5.94,0,11.34-4.9,11.34-13.79S394.27,42.68,388.33,42.68Z"/><path class="cls-1" d="M454.54,29.87a27.38,27.38,0,0,1,10.14,1.88,24.24,24.24,0,0,1,8.2,5.34,24.51,24.51,0,0,1,5.47,8.38,29.62,29.62,0,0,1,2,11,30.1,30.1,0,0,1-2,11A25.16,25.16,0,0,1,472.88,76a24.58,24.58,0,0,1-8.2,5.47,26.8,26.8,0,0,1-10.14,1.93,27.8,27.8,0,0,1-6.17-.66A23.81,23.81,0,0,1,443.18,81,21.66,21.66,0,0,1,439,78.35a20,20,0,0,1-3.13-3.18v7.39H421.59V13.31h14.28v25A17.47,17.47,0,0,1,439.05,35a20.5,20.5,0,0,1,4.24-2.67,24.2,24.2,0,0,1,5.21-1.78A27.68,27.68,0,0,1,454.54,29.87Zm-6.23,12.81a10.51,10.51,0,0,0-4.24.9,10.82,10.82,0,0,0-3.63,2.62,12.62,12.62,0,0,0-2.54,4.27,18.36,18.36,0,0,0,0,11.66,12.52,12.52,0,0,0,2.54,4.27A11,11,0,0,0,444.07,69a10.5,10.5,0,0,0,4.24.89,10.36,10.36,0,0,0,4.28-.92,11.12,11.12,0,0,0,3.66-2.68A13,13,0,0,0,458.79,62a17.3,17.3,0,0,0,1-5.86,16.86,16.86,0,0,0-1-5.8,12.24,12.24,0,0,0-2.54-4.21,10.81,10.81,0,0,0-7.94-3.44Z"/><path class="cls-1" d="M482.17,13.31h14.28V82.56H482.17Z"/><path class="cls-1" d="M526.63,83.4c-16.42,0-28.36-10.48-28.36-26.76s11.63-26.77,28.36-26.77c16.32,0,27.85,10.2,27.85,25.64a27.86,27.86,0,0,1-.41,5.06H516c.71,7.67,6.95,12,11.42,12,6.12,0,8.41-2.8,10.25-6.26h15.4C550,75.82,540.61,83.4,526.63,83.4ZM516.08,51.77h23.61c-.2-6.83-5.05-11.13-12.39-11.13C522.93,40.64,517.2,44.66,516.08,51.77Z"/><path class="cls-3" d="M459.07,93.81a6.19,6.19,0,0,0-3.28-.38,5.34,5.34,0,0,0-3.35,2.09,31,31,0,0,1-8.14,10.71c-6.06,5.08-14.69,7.43-22.26,7.43h-8.52c-7.51,0-16.69-2.44-22.87-7.71a31.25,31.25,0,0,1-7.91-10.43,3.24,3.24,0,0,0-1.38-1.41,5,5,0,0,0-6,.91,5.29,5.29,0,0,0-1,5.76c3.53,7.91,12,18,14.27,19.82,3.37,2.71,8.79,7.25,17.21,9.39a47.56,47.56,0,0,0,23.66,0,40.62,40.62,0,0,0,17-9.39c2.37-2.13,11.3-11.27,14.14-19.81C461.79,97.57,460.71,94.37,459.07,93.81Z"/></g></g></svg>